<svg width="24" height="33" viewBox="0 0 24 33" fill="none" xmlns="http://www.w3.org/2000/svg">
    <path d="M12.2033 0.0766602C5.91439 0.0766602 0.797852 5.1932 0.797852 11.4821C0.797852 19.3866 12.2145 32.8892 12.2145 32.8892C12.2145 32.8892 23.6088 18.9979 23.6088 11.4821C23.6088 5.1932 18.4924 0.0766602 12.2033 0.0766602ZM15.6446 14.8217C14.6957 15.7703 13.4496 16.2448 12.2033 16.2448C10.9572 16.2448 9.71074 15.7703 8.76225 14.8217C6.86468 12.9243 6.86468 9.83689 8.76225 7.93932C9.6811 7.02008 10.9034 6.51379 12.2033 6.51379C13.5033 6.51379 14.7253 7.02028 15.6446 7.93932C17.5422 9.83689 17.5422 12.9243 15.6446 14.8217Z" fill="#175488"/>
</svg>
