<svg width="28" height="28" viewBox="0 0 28 28" fill="none" xmlns="http://www.w3.org/2000/svg">
    <path d="M25.7895 18.4358C24.0835 18.4391 22.388 18.1694 20.7672 17.637C20.0093 17.3724 19.1672 17.5507 18.5817 18.0998L15.4015 20.499C11.9862 18.7842 9.215 16.0136 7.49963 12.5986L9.8354 9.49498C10.4251 8.90484 10.636 8.03492 10.3822 7.24024C9.84776 5.61723 9.57663 3.9192 9.57898 2.21053C9.57898 0.989695 8.58928 0 7.36845 0H2.21053C0.989695 0 0 0.989695 0 2.21053C0.0162336 16.447 11.553 27.9838 25.7895 28C27.0103 28 28 27.0103 28 25.7895V20.6463C28 19.4255 27.0103 18.4358 25.7895 18.4358Z" fill="#175488"/>
</svg>
