<svg width="157" height="157" viewBox="0 0 157 157" fill="none" xmlns="http://www.w3.org/2000/svg">
    <circle cx="78.5" cy="78.5" r="77.5" stroke="#63D304" stroke-width="2" stroke-dasharray="3 3"/>
    <path d="M118.246 77.7054C111.049 68.9372 95.8121 58.7048 79.1827 58.7048C62.4936 58.7048 47.2562 69.0068 40.1197 77.7054C39.4151 78.5641 39.4151 79.8009 40.1197 80.6597C47.4871 89.6399 62.7596 99.6604 79.1827 99.6604C96.1894 99.6604 111.361 89.0473 118.246 80.6598C118.95 79.8009 118.95 78.5641 118.246 77.7054ZM95.0026 79.1825C95.0026 87.9057 87.9058 95.0026 79.1825 95.0026C70.4591 95.0026 63.3624 87.9052 63.3624 79.1825C63.3624 70.4594 70.4592 63.3625 79.1825 63.3625C87.9066 63.3626 95.0026 70.4603 95.0026 79.1825ZM45.0661 79.1832C47.6874 76.4588 54.0077 70.5793 62.8801 66.8057C57.3121 74.1218 57.3099 84.2372 62.8774 91.556C56.1315 88.6969 49.8649 84.1797 45.0661 79.1832ZM95.4853 91.5594C101.053 84.2431 101.055 74.1279 95.4879 66.8091C102.234 69.6682 108.5 74.1855 113.299 79.1818C110.678 81.9064 104.358 87.7857 95.4853 91.5594Z" fill="url(#paint0_linear)"/>
    <path d="M71.2643 79.1827C71.2643 83.5489 74.8163 87.1009 79.1826 87.1009C83.5486 87.1009 87.1008 83.5489 87.1008 79.1827C87.1008 74.8164 83.5486 71.2644 79.1826 71.2644C74.8163 71.2644 71.2643 74.8164 71.2643 79.1827ZM82.443 79.1827C82.443 80.9806 80.9803 82.4431 79.1826 82.4431C77.3847 82.4431 75.9221 80.9806 75.9221 79.1827C75.9221 77.3847 77.3847 75.9222 79.1826 75.9222C80.9803 75.9222 82.443 77.3847 82.443 79.1827Z" fill="url(#paint1_linear)"/>
    <path d="M79.1824 49.6832C80.4686 49.6832 81.5113 48.6405 81.5113 47.3543V41.9202C81.5113 40.634 80.4686 39.5913 79.1824 39.5913C77.8962 39.5913 76.8535 40.634 76.8535 41.9202V47.3543C76.8535 48.6405 77.8962 49.6832 79.1824 49.6832Z" fill="url(#paint2_linear)"/>
    <path d="M93.0783 52.798C94.195 53.4348 95.6176 53.0465 96.2551 51.9287L99.3544 46.4946C99.9916 45.3773 99.6027 43.9551 98.4853 43.3178C97.3677 42.6806 95.9458 43.0695 95.3085 44.1871L92.2092 49.6212C91.572 50.7383 91.9611 52.1606 93.0783 52.798Z" fill="url(#paint3_linear)"/>
    <path d="M62.1107 51.929C62.7479 53.0463 64.1701 53.4353 65.2875 52.7982C66.4047 52.161 66.7938 50.7386 66.1566 49.6214L63.0573 44.1873C62.4201 43.07 60.9976 42.6809 59.8805 43.3181C58.7633 43.9553 58.3742 45.3777 59.0114 46.4949L62.1107 51.929Z" fill="url(#paint4_linear)"/>
    <path d="M79.1824 108.682C77.8962 108.682 76.8535 109.725 76.8535 111.011V116.445C76.8535 117.731 77.8962 118.774 79.1824 118.774C80.4686 118.774 81.5113 117.731 81.5113 116.445V111.011C81.5113 109.725 80.4686 108.682 79.1824 108.682Z" fill="url(#paint5_linear)"/>
    <path d="M65.2875 105.567C64.1702 104.93 62.748 105.319 62.1107 106.436L59.0114 111.871C58.3742 112.988 58.7633 114.41 59.8805 115.047C60.998 115.685 62.4201 115.295 63.0573 114.178L66.1566 108.744C66.794 107.627 66.4047 106.205 65.2875 105.567Z" fill="url(#paint6_linear)"/>
    <path d="M96.2551 106.437C95.6179 105.319 94.1953 104.93 93.0783 105.567C91.9611 106.204 91.572 107.627 92.2092 108.744L95.3085 114.178C95.9455 115.295 97.3677 115.685 98.4853 115.047C99.6025 114.41 99.9916 112.988 99.3544 111.871L96.2551 106.437Z" fill="url(#paint7_linear)"/>
    <defs>
        <linearGradient id="paint0_linear" x1="39.5913" y1="99.6604" x2="121.825" y2="92.1619" gradientUnits="userSpaceOnUse">
            <stop stop-color="#63D304"/>
            <stop offset="1" stop-color="#397A02"/>
        </linearGradient>
        <linearGradient id="paint1_linear" x1="71.2643" y1="87.1009" x2="87.8109" y2="86.3205" gradientUnits="userSpaceOnUse">
            <stop stop-color="#63D304"/>
            <stop offset="1" stop-color="#397A02"/>
        </linearGradient>
        <linearGradient id="paint2_linear" x1="76.8535" y1="49.6832" x2="81.7287" y2="49.5771" gradientUnits="userSpaceOnUse">
            <stop stop-color="#63D304"/>
            <stop offset="1" stop-color="#397A02"/>
        </linearGradient>
        <linearGradient id="paint3_linear" x1="91.9029" y1="53.1042" x2="100.016" y2="52.8101" gradientUnits="userSpaceOnUse">
            <stop stop-color="#63D304"/>
            <stop offset="1" stop-color="#397A02"/>
        </linearGradient>
        <linearGradient id="paint4_linear" x1="58.7051" y1="53.1045" x2="66.8181" y2="52.8103" gradientUnits="userSpaceOnUse">
            <stop stop-color="#63D304"/>
            <stop offset="1" stop-color="#397A02"/>
        </linearGradient>
        <linearGradient id="paint5_linear" x1="76.8535" y1="118.774" x2="81.7287" y2="118.668" gradientUnits="userSpaceOnUse">
            <stop stop-color="#63D304"/>
            <stop offset="1" stop-color="#397A02"/>
        </linearGradient>
        <linearGradient id="paint6_linear" x1="58.7051" y1="115.354" x2="66.8182" y2="115.059" gradientUnits="userSpaceOnUse">
            <stop stop-color="#63D304"/>
            <stop offset="1" stop-color="#397A02"/>
        </linearGradient>
        <linearGradient id="paint7_linear" x1="91.9029" y1="115.354" x2="100.016" y2="115.06" gradientUnits="userSpaceOnUse">
            <stop stop-color="#63D304"/>
            <stop offset="1" stop-color="#397A02"/>
        </linearGradient>
    </defs>
</svg>
