<svg width="157" height="157" viewBox="0 0 157 157" fill="none" xmlns="http://www.w3.org/2000/svg">
    <circle cx="78.5" cy="78.5" r="77.5" stroke="#63D304" stroke-width="2" stroke-dasharray="3 3"/>
    <path d="M118.818 83.1462H117.497V79.1827C117.497 78.8323 117.358 78.4962 117.11 78.2484C116.862 78.0007 116.526 77.8615 116.176 77.8615H114.855V63.3285C114.855 62.2773 114.437 61.2692 113.694 60.5259C112.95 59.7826 111.942 59.365 110.891 59.365H92.3946C91.3434 59.365 90.3353 59.7826 89.592 60.5259C88.8487 61.2692 88.4311 62.2773 88.4311 63.3285V77.8615H87.1099C86.7595 77.8615 86.4235 78.0007 86.1757 78.2484C85.9279 78.4962 85.7887 78.8323 85.7887 79.1827V83.1462H83.1464V71.2556C83.1464 70.9052 83.0072 70.5691 82.7594 70.3214C82.5116 70.0736 82.1756 69.9344 81.8252 69.9344H71.2558C70.9054 69.9344 70.5693 70.0736 70.3216 70.3214C70.0738 70.5691 69.9346 70.9052 69.9346 71.2556V72.5768H68.6134C67.5622 72.5768 66.5541 72.9944 65.8108 73.7377C65.0675 74.481 64.6499 75.4891 64.6499 76.5403C64.6499 77.5915 65.0675 78.5996 65.8108 79.3429C66.5541 80.0863 67.5622 80.5038 68.6134 80.5038H69.9346V83.1462H56.7228V79.1827C56.7228 78.8323 56.5836 78.4962 56.3358 78.2484C56.0881 78.0007 55.752 77.8615 55.4016 77.8615H54.0805V73.8979C54.0805 73.5476 53.9413 73.2115 53.6935 72.9637C53.4457 72.716 53.1097 72.5768 52.7593 72.5768H39.5475C39.1971 72.5768 38.8611 72.716 38.6133 72.9637C38.3655 73.2115 38.2263 73.5476 38.2263 73.8979V79.1827C38.2263 79.5331 38.3655 79.8691 38.6133 80.1169C38.8611 80.3646 39.1971 80.5038 39.5475 80.5038H40.8687V83.1462H39.5475C39.1971 83.1462 38.8611 83.2854 38.6133 83.5332C38.3655 83.7809 38.2263 84.117 38.2263 84.4674V92.3944C38.2263 92.7448 38.3655 93.0809 38.6133 93.3287C38.8611 93.5764 39.1971 93.7156 39.5475 93.7156H43.511V118.818C43.511 119.168 43.6502 119.504 43.898 119.752C44.1458 120 44.4818 120.139 44.8322 120.139H52.7593C53.1097 120.139 53.4457 120 53.6935 119.752C53.9413 119.504 54.0805 119.168 54.0805 118.818V117.497H104.285V118.818C104.285 119.168 104.424 119.504 104.672 119.752C104.92 120 105.256 120.139 105.606 120.139H113.533C113.884 120.139 114.22 120 114.468 119.752C114.715 119.504 114.855 119.168 114.855 118.818V93.7156H118.818C119.169 93.7156 119.505 93.5764 119.752 93.3287C120 93.0809 120.139 92.7448 120.139 92.3944V84.4674C120.139 84.117 120 83.7809 119.752 83.5332C119.505 83.2854 119.169 83.1462 118.818 83.1462ZM91.0734 63.3285C91.0734 62.9781 91.2126 62.6421 91.4604 62.3943C91.7082 62.1465 92.0442 62.0073 92.3946 62.0073H110.891C111.242 62.0073 111.578 62.1465 111.825 62.3943C112.073 62.6421 112.212 62.9781 112.212 63.3285V77.8615H91.0734V63.3285ZM88.4311 80.5038H114.855V83.1462H88.4311V80.5038ZM68.6134 77.8615C68.263 77.8615 67.927 77.7223 67.6792 77.4745C67.4314 77.2268 67.2922 76.8907 67.2922 76.5403C67.2922 76.1899 67.4314 75.8539 67.6792 75.6061C67.927 75.3583 68.263 75.2191 68.6134 75.2191H69.9346V77.8615H68.6134ZM72.577 72.5768H80.504V83.1462H72.577V72.5768ZM40.8687 75.2191H51.4381V77.8615H40.8687V75.2191ZM43.511 80.5038H54.0805V83.1462H43.511V80.5038ZM46.1534 117.497V93.7156H51.4381V117.497H46.1534ZM54.0805 114.854V93.7156H104.285V114.854H54.0805ZM112.212 117.497H106.928V93.7156H112.212V117.497ZM117.497 91.0733H40.8687V85.7886H117.497V91.0733Z" fill="url(#paint0_linear)"/>
    <path d="M101.643 64.6497C100.597 64.6497 99.5757 64.9596 98.7066 65.5403C97.8376 66.121 97.1602 66.9463 96.7602 67.912C96.3602 68.8777 96.2556 69.9402 96.4595 70.9654C96.6634 71.9905 97.1667 72.9321 97.9058 73.6712C98.6449 74.4103 99.5865 74.9136 100.612 75.1175C101.637 75.3215 102.699 75.2168 103.665 74.8168C104.631 74.4168 105.456 73.7395 106.037 72.8704C106.617 72.0013 106.927 70.9796 106.927 69.9344C106.927 68.5328 106.371 67.1886 105.38 66.1975C104.388 65.2064 103.044 64.6497 101.643 64.6497ZM101.643 72.5767C101.12 72.5767 100.609 72.4218 100.175 72.1314C99.7401 71.8411 99.4015 71.4284 99.2015 70.9456C99.0015 70.4627 98.9491 69.9314 99.0511 69.4189C99.153 68.9063 99.4047 68.4355 99.7742 68.0659C100.144 67.6964 100.615 67.4447 101.127 67.3428C101.64 67.2408 102.171 67.2932 102.654 67.4932C103.137 67.6931 103.549 68.0318 103.84 68.4664C104.13 68.9009 104.285 69.4118 104.285 69.9344C104.285 70.6352 104.007 71.3073 103.511 71.8028C103.016 72.2983 102.343 72.5767 101.643 72.5767Z" fill="url(#paint1_linear)"/>
    <path d="M73.3566 62.0074C73.7051 62.3588 73.9007 62.8336 73.9007 63.3285C73.9007 63.8235 73.7051 64.2983 73.3566 64.6497L71.639 66.354L73.5151 68.2301L75.2194 66.5126C75.6389 66.0952 75.9717 65.599 76.1988 65.0526C76.4259 64.5062 76.5428 63.9203 76.5428 63.3285C76.5428 62.7368 76.4259 62.1509 76.1988 61.6045C75.9717 61.0581 75.6389 60.5619 75.2194 60.1445L74.4399 59.365C74.0935 59.0124 73.899 58.5381 73.8983 58.0438V56.7227H71.2559V58.0438C71.2527 58.6358 71.3679 59.2225 71.5948 59.7693C71.8217 60.3161 72.1557 60.8121 72.5771 61.2279L73.3566 62.0074Z" fill="url(#paint2_linear)"/>
    <path d="M78.6412 62.0074C78.9897 62.3588 79.1853 62.8336 79.1853 63.3285C79.1853 63.8235 78.9897 64.2983 78.6412 64.6497L76.9237 66.354L78.7997 68.2301L80.5041 66.5126C80.9235 66.0952 81.2563 65.599 81.4834 65.0526C81.7106 64.5062 81.8275 63.9203 81.8275 63.3285C81.8275 62.7368 81.7106 62.1509 81.4834 61.6045C81.2563 61.0581 80.9235 60.5619 80.5041 60.1445L79.7246 59.365C79.3781 59.0124 79.1837 58.5381 79.1829 58.0438V56.7227H76.5405V58.0438C76.5373 58.6358 76.6525 59.2225 76.8794 59.7693C77.1063 60.3161 77.4403 60.8121 77.8617 61.2279L78.6412 62.0074Z" fill="url(#paint3_linear)"/>
    <path d="M52.7591 67.292C55.6334 67.292 58.4432 66.4397 60.8331 64.8428C63.2231 63.2459 65.0858 60.9761 66.1858 58.3206C67.2857 55.665 67.5735 52.7429 67.0128 49.9238C66.452 47.1047 65.0679 44.5152 63.0354 42.4827C61.0029 40.4502 58.4134 39.0661 55.5943 38.5053C52.7752 37.9446 49.8531 38.2324 47.1975 39.3323C44.542 40.4323 42.2723 42.295 40.6753 44.685C39.0784 47.0749 38.2261 49.8847 38.2261 52.759C38.2261 56.6134 39.7573 60.3099 42.4827 63.0354C45.2082 65.7609 48.9047 67.292 52.7591 67.292ZM43.5108 45.3472L45.2151 47.0912L47.0912 45.2151L45.3473 43.5108C47.0903 42.0912 49.2042 41.2016 51.4379 40.9477V43.5108H54.0802V40.9477C56.3139 41.2016 58.4278 42.0912 60.1709 43.5108L58.4269 45.2151L60.303 47.0912L62.0073 45.3472C63.4269 47.0903 64.3165 49.2042 64.5704 51.4379H62.0073V54.0802H64.5704C64.3165 56.3139 63.4269 58.4278 62.0073 60.1709L60.2766 58.4269L58.4005 60.303L60.1709 62.0073C58.4278 63.4269 56.3139 64.3165 54.0802 64.5704V62.0073H51.4379V64.5704C49.2042 64.3165 47.0903 63.4269 45.3473 62.0073L47.0912 60.2765L45.2151 58.4269L43.5108 60.1709C42.0912 58.4278 41.2016 56.3139 40.9477 54.0802H43.5108V51.4379H40.9477C41.2016 49.2042 42.0912 47.0903 43.5108 45.3472Z" fill="url(#paint4_linear)"/>
    <path d="M57.106 58.9817L58.9821 57.1056L54.0805 52.2173V46.1531H51.4382V52.759C51.4372 52.9328 51.4705 53.1052 51.5362 53.2662C51.602 53.4271 51.6989 53.5736 51.8213 53.697L57.106 58.9817Z" fill="url(#paint5_linear)"/>
    <defs>
        <linearGradient id="paint0_linear" x1="38.2263" y1="120.139" x2="123.657" y2="114.708" gradientUnits="userSpaceOnUse">
            <stop stop-color="#63D304"/>
            <stop offset="1" stop-color="#397A02"/>
        </linearGradient>
        <linearGradient id="paint1_linear" x1="96.358" y1="75.2191" x2="107.401" y2="74.6982" gradientUnits="userSpaceOnUse">
            <stop stop-color="#63D304"/>
            <stop offset="1" stop-color="#397A02"/>
        </linearGradient>
        <linearGradient id="paint2_linear" x1="71.2558" y1="68.2301" x2="76.7896" y2="68.1102" gradientUnits="userSpaceOnUse">
            <stop stop-color="#63D304"/>
            <stop offset="1" stop-color="#397A02"/>
        </linearGradient>
        <linearGradient id="paint3_linear" x1="76.5405" y1="68.2301" x2="82.0742" y2="68.1102" gradientUnits="userSpaceOnUse">
            <stop stop-color="#63D304"/>
            <stop offset="1" stop-color="#397A02"/>
        </linearGradient>
        <linearGradient id="paint4_linear" x1="38.2261" y1="67.292" x2="68.5953" y2="65.8597" gradientUnits="userSpaceOnUse">
            <stop stop-color="#63D304"/>
            <stop offset="1" stop-color="#397A02"/>
        </linearGradient>
        <linearGradient id="paint5_linear" x1="51.4382" y1="58.9817" x2="59.3318" y2="58.7628" gradientUnits="userSpaceOnUse">
            <stop stop-color="#63D304"/>
            <stop offset="1" stop-color="#397A02"/>
        </linearGradient>
    </defs>
</svg>
