<svg width="157" height="157" viewBox="0 0 157 157" fill="none" xmlns="http://www.w3.org/2000/svg">
    <circle cx="78.5" cy="78.5" r="77.5" stroke="#63D304" stroke-width="2" stroke-dasharray="3 3"/>
    <path d="M124.589 99.5916L115.948 96.4461C115.151 96.158 114.273 96.5696 113.985 97.3659L113.46 98.805L103.449 95.1544C103.197 95.0601 102.925 95.0369 102.661 95.0855L81.8313 98.7639C79.9431 99.0999 78.3213 100.299 77.4442 102.004L67.8894 98.5184C66.3634 97.9571 64.6751 98.032 63.2045 98.7257C61.3357 99.5976 60.0298 101.347 59.7252 103.387C59.3435 106.338 61.0918 109.152 63.908 110.116L95.3817 121.572C95.5493 121.634 95.7275 121.666 95.9063 121.666C96.0732 121.666 96.2386 121.638 96.3965 121.585L105.186 118.617L106.122 118.957L105.597 120.398C105.309 121.194 105.721 122.073 106.517 122.362L115.16 125.506C115.327 125.568 115.505 125.601 115.683 125.6C116.327 125.601 116.903 125.197 117.123 124.592L125.511 101.546C125.793 100.752 125.381 99.879 124.589 99.5916ZM104.714 115.545L95.9243 118.513L64.9557 107.239C63.5233 106.763 62.6095 105.359 62.7547 103.855C62.8842 102.939 63.42 102.131 64.2133 101.654C65.0066 101.178 65.972 101.086 66.8409 101.403L76.7856 105.022C76.7908 105.305 76.8133 105.587 76.8544 105.866C77.4554 109.191 80.6226 111.41 83.9522 110.84L101.208 107.798L100.674 104.778L83.4268 107.821C81.7662 108.103 80.1855 107.001 79.8757 105.345C79.8121 104.996 79.8143 104.637 79.8832 104.288C79.8944 104.237 79.9034 104.186 79.9094 104.134C79.9296 104.003 79.9648 103.875 80.0149 103.753C80.3913 102.724 81.2864 101.973 82.3649 101.78L102.786 98.1786L112.412 101.68L107.17 116.088L105.729 115.565C105.403 115.444 105.045 115.437 104.714 115.545ZM114.76 122.107L108.999 120.01L116.337 99.8461L122.099 101.942L114.76 122.107Z" fill="url(#paint0_linear)"/>
    <path d="M68.7679 57.4893C69.2626 59.3004 70.1749 60.9708 71.4314 62.3651C71.4082 62.4878 71.3917 62.6113 71.3843 62.7363V71.0831C71.3843 73.6224 73.4423 75.6812 75.9824 75.6812V91.0084C75.9787 91.5921 76.3079 92.1272 76.8296 92.3876L79.895 93.9204C80.3268 94.1359 80.8342 94.1359 81.2653 93.9204L84.3307 92.3876C84.8531 92.1272 85.1817 91.5921 85.1787 91.0084V75.6812C87.718 75.6812 89.7768 73.6224 89.7768 71.0831V62.7363C89.7686 62.6023 89.7514 62.4691 89.7259 62.3374C90.7497 61.211 91.5475 59.8983 92.0759 58.4704C94.339 58.8506 96.6044 57.8111 97.7929 55.848C99.25 53.4375 98.8511 50.3398 96.8304 48.3776L84.3569 35.9071C82.3497 33.8894 79.6181 32.7578 76.7712 32.7653H60.6553C60.4472 32.7645 60.2422 32.8072 60.0513 32.8895L49.6195 37.3634H48.3936V34.298C48.3936 33.4516 47.7073 32.7653 46.8609 32.7653H34.5992C33.7527 32.7653 33.0665 33.4516 33.0665 34.298V58.8214C33.0665 59.6678 33.7527 60.3541 34.5992 60.3541H46.8609C47.7073 60.3541 48.3936 59.6678 48.3936 58.8214V55.756H48.6174C49.7145 59.4343 54.6434 61.8868 59.1226 61.8868C62.8383 61.9632 66.388 60.3451 68.7679 57.4893ZM45.3282 57.2887H36.1319V35.8307H45.3282V57.2887ZM82.1132 90.0609L80.5805 90.8272L79.0478 90.0609V75.6812H82.1132V90.0609ZM86.7114 71.0831C86.7114 71.9295 86.0251 72.6158 85.1787 72.6158H75.9824C75.136 72.6158 74.4497 71.9295 74.4497 71.0831V64.8265C75.4802 65.4267 76.5946 65.8713 77.7553 66.1444C78.2852 67.4339 79.6136 68.2078 80.9959 68.0326C82.3789 67.8583 83.4731 66.7783 83.6654 65.3975C83.8578 64.0175 83.1004 62.6794 81.8184 62.133C80.5356 61.5875 79.0463 61.9684 78.1849 63.0641C77.3205 62.8373 76.4936 62.4848 75.7324 62.017C77.2098 61.1212 78.8637 60.5539 80.5805 60.3541C82.7808 60.6632 84.8793 61.479 86.7114 62.7363V71.0831ZM87.8527 59.8527C85.6614 58.4435 83.1715 57.5656 80.5805 57.2887C77.9941 57.5641 75.5079 58.4405 73.3196 59.8467C72.3849 58.6568 71.7659 57.2498 71.5205 55.756H79.0478C81.293 55.7784 83.3616 54.5406 84.4026 52.5514L88.6946 56.8426C88.866 57.0028 89.0471 57.1517 89.2372 57.2887C88.9214 58.2145 88.4536 59.0811 87.8527 59.8527ZM85.1061 48.9186C84.9631 47.6643 84.4318 46.4856 83.5876 45.5464C87.0541 46.7505 89.4737 49.8998 89.7431 53.5594L85.1061 48.9186ZM66.7861 54.2233C66.7861 56.544 62.9895 58.8214 59.1226 58.8214C55.2556 58.8214 51.459 56.544 51.459 54.2233C51.459 53.3768 50.7727 52.6906 49.9263 52.6906H48.3936V40.4289H49.9263C50.1336 40.4296 50.3394 40.3869 50.5303 40.3046L60.9614 35.8307H76.7637C78.7994 35.8232 80.7542 36.6315 82.1896 38.0744L94.6601 50.5449C95.6682 51.4864 95.8949 52.9981 95.2072 54.1941C94.6953 55.0046 93.8002 55.491 92.8422 55.4798C92.8175 55.4798 92.7943 55.4798 92.7696 55.4798C92.816 55.063 92.84 54.6431 92.8422 54.2233C92.8347 47.4548 87.349 41.9691 80.5805 41.9616C78.521 41.9646 76.4958 42.4922 74.6959 43.4943H62.188V46.5597H79.0478C80.7407 46.5597 82.1132 47.9323 82.1132 49.6251C82.1132 51.318 80.7407 52.6906 79.0478 52.6906H68.3188C67.4724 52.6906 66.7861 53.3768 66.7861 54.2233Z" fill="url(#paint1_linear)"/>
    <defs>
        <linearGradient id="paint0_linear" x1="59.6731" y1="125.6" x2="128" y2="118.643" gradientUnits="userSpaceOnUse">
            <stop stop-color="#63D304"/>
            <stop offset="1" stop-color="#397A02"/>
        </linearGradient>
        <linearGradient id="paint1_linear" x1="33.0665" y1="94.082" x2="101.585" y2="90.6248" gradientUnits="userSpaceOnUse">
            <stop stop-color="#63D304"/>
            <stop offset="1" stop-color="#397A02"/>
        </linearGradient>
    </defs>
</svg>
