<svg width="157" height="157" viewBox="0 0 157 157" fill="none" xmlns="http://www.w3.org/2000/svg">
    <circle cx="78.5" cy="78.5" r="77.5" stroke="#63D304" stroke-width="2" stroke-dasharray="3 3"/>
    <path d="M115.691 72.1364H105.288C105.201 72.1364 105.12 72.1632 105.036 72.1716L93.0218 60.1577L94.1393 59.0402L92.1467 57.0475L91.0291 58.165L87.3848 54.5207L88.5023 53.4032L86.5096 51.4105L85.3921 52.528L81.7478 48.8837L82.8653 47.7661L80.8726 45.7734L79.7551 46.891L76.1107 43.2466L77.2283 42.1291L75.2356 40.1364L74.118 41.2539L69.6479 36.7838C68.8178 35.9523 67.713 35.4957 66.5376 35.4957C64.7465 35.4957 63.209 36.5752 62.5241 38.1141L62.0689 37.6589C60.6709 36.2638 58.8163 35.4957 56.8448 35.4957C56.7278 35.4957 56.6179 35.5253 56.5023 35.531V35.4957H43.819C41.4881 35.4957 39.5912 37.3926 39.5912 39.7235V50.9976H42.5746L43.9839 62.2716H46.6375V65.2325C43.4258 65.8878 41.0005 68.7345 41.0005 72.1364V82.0012H46.6375V89.0475H48.7514C50.6934 89.0475 52.2746 90.6273 52.2746 92.5706C52.2746 94.514 50.6934 96.0938 48.7514 96.0938C46.8095 96.0938 45.2283 94.514 45.2283 92.5706V91.866H42.4098V92.5706C42.4098 96.067 45.2551 98.9123 48.7514 98.9123C52.2478 98.9123 55.0931 96.067 55.0931 92.5706C55.0931 89.3124 52.6226 86.6193 49.456 86.267V82.0012H55.0931V72.1364C55.0931 68.7345 52.6677 65.8878 49.456 65.2325V62.2716H52.1097L53.5189 50.9976H54.511L72.8314 69.3179H69.1856C67.5424 69.3179 66.0359 70.2832 65.3468 71.7742L57.9059 87.8947C57.6481 88.4542 57.517 89.0503 57.517 89.6661V101.731C57.517 104.062 59.4139 105.959 61.7448 105.959H64.9579V108.777H57.9116C54.0263 108.777 50.8653 111.938 50.8653 115.823C50.8653 119.709 54.0263 122.87 57.9116 122.87H103.008C106.893 122.87 110.054 119.709 110.054 115.823C110.054 111.938 106.893 108.777 103.008 108.777H98.78V105.959H114.282C116.613 105.959 118.51 104.062 118.51 101.731V74.9549C118.51 73.4005 117.246 72.1364 115.691 72.1364ZM52.2746 72.1364V79.1827H43.819V72.1364C43.819 69.8055 45.7159 67.9086 48.0468 67.9086C50.3777 67.9086 52.2746 69.8055 52.2746 72.1364ZM49.6209 59.4531H46.4726L45.4157 50.9976H50.6793L49.6209 59.4531ZM42.4098 48.179V39.7235C42.4098 38.9456 43.0425 38.3142 43.819 38.3142H51.0837C50.0803 39.5755 49.456 41.1497 49.456 42.8831C49.456 44.8574 50.2241 46.7134 51.6207 48.1072L51.6911 48.179H42.4098ZM102.702 73.8233L101.212 76.8039L88.794 64.3855L91.0291 62.1504L102.702 73.8233ZM93.0289 72.6071L99.8835 79.4617L99.3184 80.5919H93.143V73.5457C93.143 73.2215 93.0993 72.9101 93.0289 72.6071ZM89.0364 60.1577L86.8013 62.3928L83.157 58.7485L85.3921 56.5134L89.0364 60.1577ZM83.3994 54.5207L81.1643 56.7558L77.52 53.1114L79.7551 50.8764L83.3994 54.5207ZM77.7624 48.8837L75.5273 51.1187L71.883 47.4744L74.118 45.2393L77.7624 48.8837ZM66.5376 38.3142C66.9604 38.3142 67.3564 38.4777 67.6552 38.7765L72.1253 43.2466L69.8903 45.4817L68.7727 44.3642L65.4187 41.0101C65.1256 40.7156 64.9579 40.3083 64.9579 39.894C64.9579 39.0231 65.6667 38.3142 66.5376 38.3142ZM53.6119 46.1145C52.7495 45.252 52.2746 44.1049 52.2746 42.8831C52.2746 40.3633 54.325 38.3142 56.8448 38.3142C58.0638 38.3142 59.2123 38.7892 60.0762 39.6516L63.426 43.0028L63.4274 43.0042L63.6698 43.2466L57.207 49.7095L53.6119 46.1145ZM59.1996 51.7022L65.6625 45.2393L67.8976 47.4744L66.78 48.5919L68.7727 50.5846L69.8903 49.4671L73.5346 53.1114L72.4171 54.229L74.4098 56.2217L75.5273 55.1041L79.1716 58.7485L78.0541 59.866L80.0468 61.8587L81.1643 60.7411L84.8087 64.3855L83.6911 65.503L85.6838 67.4957L86.8013 66.3782L89.8538 69.4306C89.5508 69.3616 89.2394 69.3179 88.9152 69.3179H76.8154L59.1996 51.7022ZM61.7448 103.14C60.9683 103.14 60.3355 102.509 60.3355 101.731V89.6661C60.3355 89.4604 60.3792 89.2631 60.4652 89.0757L67.906 72.9552C68.1357 72.4591 68.6374 72.1364 69.1856 72.1364H88.9152C89.6917 72.1364 90.3245 72.7677 90.3245 73.5457V103.14H61.7448ZM57.9482 120.051H57.9116C55.5807 120.051 53.6838 118.154 53.6838 115.823C53.6838 113.492 55.5807 111.596 57.9116 111.596H57.9482C57.0533 112.777 56.5023 114.231 56.5023 115.823C56.5023 117.416 57.0533 118.87 57.9482 120.051ZM63.5486 120.051C61.2177 120.051 59.3208 118.154 59.3208 115.823C59.3208 113.492 61.2177 111.596 63.5486 111.596C65.8795 111.596 67.7764 113.492 67.7764 115.823C67.7764 118.154 65.8795 120.051 63.5486 120.051ZM67.7764 105.959H95.9615V108.777H67.7764V105.959ZM69.2209 111.596C69.2096 111.611 69.1969 111.624 69.1856 111.639C69.1744 111.624 69.1617 111.611 69.149 111.596H69.2209ZM69.1504 120.051C69.1617 120.036 69.1744 120.023 69.1856 120.007C69.1969 120.023 69.2096 120.036 69.2223 120.051H69.1504ZM74.8227 120.051C72.4918 120.051 70.5949 118.154 70.5949 115.823C70.5949 113.492 72.4918 111.596 74.8227 111.596C77.1536 111.596 79.0504 113.492 79.0504 115.823C79.0504 118.154 77.1536 120.051 74.8227 120.051ZM80.4949 111.596C80.4837 111.611 80.471 111.624 80.4597 111.639C80.4484 111.624 80.4357 111.611 80.4231 111.596H80.4949ZM80.4245 120.051C80.4357 120.036 80.4498 120.023 80.4611 120.007C80.471 120.023 80.4837 120.036 80.4963 120.051H80.4245ZM86.0967 120.051C83.7658 120.051 81.8689 118.154 81.8689 115.823C81.8689 113.492 83.7658 111.596 86.0967 111.596C88.4276 111.596 90.3245 113.492 90.3245 115.823C90.3245 118.154 88.4276 120.051 86.0967 120.051ZM91.769 111.596C91.7577 111.611 91.745 111.624 91.7337 111.639C91.7225 111.624 91.7098 111.611 91.6971 111.596H91.769ZM91.6985 120.051C91.7098 120.036 91.7239 120.023 91.7352 120.007C91.745 120.023 91.7577 120.036 91.7704 120.051H91.6985ZM102.971 111.596H103.008C105.339 111.596 107.236 113.492 107.236 115.823C107.236 118.154 105.339 120.051 103.008 120.051H102.971C103.866 118.87 104.417 117.416 104.417 115.823C104.417 114.231 103.866 112.777 102.971 111.596ZM101.599 115.823C101.599 118.154 99.7017 120.051 97.3708 120.051C95.0399 120.051 93.143 118.154 93.143 115.823C93.143 113.492 95.0399 111.596 97.3708 111.596C99.7017 111.596 101.599 113.492 101.599 115.823ZM115.691 101.731C115.691 102.509 115.058 103.14 114.282 103.14H93.143V89.0475H115.691V101.731ZM115.691 86.229H93.143V83.4104H115.691V86.229ZM115.691 80.5919H102.469L105.288 74.9549H115.691V80.5919Z" fill="url(#paint0_linear)"/>
    <path d="M70.0881 74.955L63.156 89.9748V100.322H87.5065V74.955H70.0881ZM84.688 97.5031H65.9745V91.866H84.688V97.5031ZM84.688 89.0475H66.6876L71.8905 77.7735H84.688V89.0475Z" fill="url(#paint1_linear)"/>
    <path d="M112.873 91.8658H110.055V94.6844H112.873V91.8658Z" fill="url(#paint2_linear)"/>
    <path d="M112.873 97.5031H110.055V100.322H112.873V97.5031Z" fill="url(#paint3_linear)"/>
    <path d="M49.4559 72.1362H46.6374V74.9547H49.4559V72.1362Z" fill="url(#paint4_linear)"/>
    <path d="M64.9586 114.414H62.1401V117.232H64.9586V114.414Z" fill="url(#paint5_linear)"/>
    <path d="M76.2324 114.414H73.4138V117.232H76.2324V114.414Z" fill="url(#paint6_linear)"/>
    <path d="M87.506 114.414H84.6875V117.232H87.506V114.414Z" fill="url(#paint7_linear)"/>
    <path d="M98.7798 114.414H95.9613V117.232H98.7798V114.414Z" fill="url(#paint8_linear)"/>
    <defs>
        <linearGradient id="paint0_linear" x1="39.5912" y1="122.87" x2="122.082" y2="119.356" gradientUnits="userSpaceOnUse">
            <stop stop-color="#63D304"/>
            <stop offset="1" stop-color="#397A02"/>
        </linearGradient>
        <linearGradient id="paint1_linear" x1="63.156" y1="100.322" x2="88.6028" y2="99.1695" gradientUnits="userSpaceOnUse">
            <stop stop-color="#63D304"/>
            <stop offset="1" stop-color="#397A02"/>
        </linearGradient>
        <linearGradient id="paint2_linear" x1="110.055" y1="94.6844" x2="113" y2="94.5455" gradientUnits="userSpaceOnUse">
            <stop stop-color="#63D304"/>
            <stop offset="1" stop-color="#397A02"/>
        </linearGradient>
        <linearGradient id="paint3_linear" x1="110.055" y1="100.322" x2="113" y2="100.183" gradientUnits="userSpaceOnUse">
            <stop stop-color="#63D304"/>
            <stop offset="1" stop-color="#397A02"/>
        </linearGradient>
        <linearGradient id="paint4_linear" x1="46.6374" y1="74.9547" x2="49.5823" y2="74.8159" gradientUnits="userSpaceOnUse">
            <stop stop-color="#63D304"/>
            <stop offset="1" stop-color="#397A02"/>
        </linearGradient>
        <linearGradient id="paint5_linear" x1="62.1401" y1="117.232" x2="65.085" y2="117.094" gradientUnits="userSpaceOnUse">
            <stop stop-color="#63D304"/>
            <stop offset="1" stop-color="#397A02"/>
        </linearGradient>
        <linearGradient id="paint6_linear" x1="73.4138" y1="117.232" x2="76.3587" y2="117.094" gradientUnits="userSpaceOnUse">
            <stop stop-color="#63D304"/>
            <stop offset="1" stop-color="#397A02"/>
        </linearGradient>
        <linearGradient id="paint7_linear" x1="84.6875" y1="117.232" x2="87.6324" y2="117.094" gradientUnits="userSpaceOnUse">
            <stop stop-color="#63D304"/>
            <stop offset="1" stop-color="#397A02"/>
        </linearGradient>
        <linearGradient id="paint8_linear" x1="95.9613" y1="117.232" x2="98.9062" y2="117.094" gradientUnits="userSpaceOnUse">
            <stop stop-color="#63D304"/>
            <stop offset="1" stop-color="#397A02"/>
        </linearGradient>
    </defs>
</svg>
