<svg width="157" height="157" viewBox="0 0 157 157" fill="none" xmlns="http://www.w3.org/2000/svg">
    <circle cx="78.5" cy="78.5" r="77.5" stroke="#63D304" stroke-width="2" stroke-dasharray="3 3"/>
    <path d="M124.405 65.7898C124.405 62.5888 121.801 59.9842 118.6 59.9842C117.05 59.9842 115.591 60.5884 114.495 61.6852L110.702 65.4788L106.487 69.6935V57.3221C110.822 56.6975 114.166 52.9692 114.166 48.4652C114.166 43.5248 110.147 39.506 105.207 39.506H54.0113C49.071 39.506 45.0521 43.5248 45.0521 48.4652V112.46C45.0521 113.166 45.6255 113.74 46.332 113.74H52.7314V117.579C52.7314 118.286 53.3048 118.859 54.0113 118.859H105.207C105.913 118.859 106.487 118.286 106.487 117.579V86.1119L118.911 73.688L120.225 72.3736C119.562 75.6757 117.946 78.7116 115.511 81.1472L109.423 87.2357L111.233 89.0455L117.321 82.957C120.953 79.3247 122.985 74.5276 123.104 69.4094C123.932 68.3829 124.405 67.1286 124.405 65.7898ZM116.305 63.495C116.918 62.8819 117.733 62.544 118.6 62.544C120.389 62.544 121.846 64.0005 121.846 65.7898C121.846 66.6563 121.508 67.4716 120.895 68.0847L118.006 70.9734L113.416 66.3837L116.305 63.495ZM111.606 68.1935L112.996 69.5834L96.8877 85.6921L95.4977 84.3022L111.606 68.1935ZM81.1668 101.969L83.7995 96.7018L87.6878 100.59L82.4211 103.223L81.1668 101.969ZM85.2586 94.5413L93.688 86.1119L98.2777 90.7016L89.8483 99.131L85.2586 94.5413ZM105.207 42.0658C108.736 42.0658 111.606 44.9366 111.606 48.4652C111.606 51.9939 108.736 54.8647 105.207 54.8647H60.27C61.9339 53.2367 62.9706 50.9712 62.9706 48.4652C62.9706 45.9592 61.9339 43.6938 60.27 42.0658H105.207ZM55.2912 54.7354V51.025C55.2912 50.3198 55.8659 49.7451 56.5711 49.7451H60.2815C59.7708 52.2486 57.7947 54.2247 55.2912 54.7354ZM47.6119 111.18V48.4652C47.6119 44.9366 50.4827 42.0658 54.0113 42.0658C57.101 42.0658 59.6864 44.2685 60.2815 47.1853H56.5711C54.4542 47.1853 52.7314 48.9081 52.7314 51.025V111.18H47.6119ZM103.927 116.299H55.2912V57.4245H103.927V72.2533L98.2777 77.9027H60.4108V80.4625H95.7179L93.1581 83.0223H60.4108V85.5821H90.5983L82.5439 93.6364C82.4441 93.7363 82.3788 93.8553 82.3187 93.9756L82.3046 93.9679L78.4649 101.647C78.2192 102.14 78.3152 102.735 78.7056 103.124L79.0793 103.501L76.1445 106.435L77.9543 108.245L80.8891 105.31L81.2641 105.685C81.5098 105.931 81.8375 106.06 82.1689 106.06C82.3622 106.06 82.5593 106.016 82.7411 105.926L90.4204 102.086L90.4127 102.072C90.533 102.012 90.6521 101.947 90.7519 101.847L100.991 91.6078L103.927 88.6717V116.299ZM100.087 88.8919L98.6975 87.5019L114.806 71.3932L116.196 72.7832L100.087 88.8919Z" fill="url(#paint0_linear)"/>
    <path d="M60.4109 62.5439H98.8077V65.1037H60.4109V62.5439Z" fill="url(#paint1_linear)"/>
    <path d="M60.4109 67.6636H98.8077V70.2234H60.4109V67.6636Z" fill="url(#paint2_linear)"/>
    <path d="M60.4109 72.7831H98.8077V75.3429H60.4109V72.7831Z" fill="url(#paint3_linear)"/>
    <path d="M60.4109 103.501H74.4897V106.06H60.4109V103.501Z" fill="url(#paint4_linear)"/>
    <path d="M60.4109 108.62H98.8077V111.18H60.4109V108.62Z" fill="url(#paint5_linear)"/>
    <defs>
        <linearGradient id="paint0_linear" x1="45.0521" y1="118.859" x2="127.964" y2="114.949" gradientUnits="userSpaceOnUse">
            <stop stop-color="#63D304"/>
            <stop offset="1" stop-color="#397A02"/>
        </linearGradient>
        <linearGradient id="paint1_linear" x1="60.4109" y1="65.1037" x2="87.2073" y2="46.1466" gradientUnits="userSpaceOnUse">
            <stop stop-color="#63D304"/>
            <stop offset="1" stop-color="#397A02"/>
        </linearGradient>
        <linearGradient id="paint2_linear" x1="60.4109" y1="70.2234" x2="87.2073" y2="51.2662" gradientUnits="userSpaceOnUse">
            <stop stop-color="#63D304"/>
            <stop offset="1" stop-color="#397A02"/>
        </linearGradient>
        <linearGradient id="paint3_linear" x1="60.4109" y1="75.3429" x2="87.2073" y2="56.3857" gradientUnits="userSpaceOnUse">
            <stop stop-color="#63D304"/>
            <stop offset="1" stop-color="#397A02"/>
        </linearGradient>
        <linearGradient id="paint4_linear" x1="60.4109" y1="106.06" x2="74.2243" y2="102.477" gradientUnits="userSpaceOnUse">
            <stop stop-color="#63D304"/>
            <stop offset="1" stop-color="#397A02"/>
        </linearGradient>
        <linearGradient id="paint5_linear" x1="60.4109" y1="111.18" x2="87.2073" y2="92.2227" gradientUnits="userSpaceOnUse">
            <stop stop-color="#63D304"/>
            <stop offset="1" stop-color="#397A02"/>
        </linearGradient>
    </defs>
</svg>
