<svg width="27" height="27" viewBox="0 0 27 27" fill="none" xmlns="http://www.w3.org/2000/svg">
    <path d="M24.8684 17.7774C23.2234 17.7806 21.5884 17.5205 20.0255 17.0071C19.2947 16.752 18.4827 16.9239 17.9181 17.4534L14.8515 19.7669C11.5581 18.1134 8.88589 15.4417 7.23179 12.1486L9.48413 9.15587C10.0528 8.58681 10.2562 7.74796 10.0114 6.98166C9.49606 5.41661 9.23461 3.77923 9.23687 2.13158C9.23687 0.954349 8.28252 0 7.10529 0H2.13158C0.954349 0 0 0.954349 0 2.13158C0.0156538 15.8596 11.1404 26.9843 24.8684 27C26.0457 27 27 26.0457 27 24.8684V19.909C27 18.7317 26.0457 17.7774 24.8684 17.7774Z" fill="#103C5A"/>
</svg>
