<svg width="122" height="122" viewBox="0 0 122 122" fill="none" xmlns="http://www.w3.org/2000/svg">
    <path d="M120.821 74.8269C117.161 69.9469 113.501 69.9469 104.555 74.6236L87.068 85.4001C84.628 86.8234 79.138 87.2301 74.0547 87.2301C75.0715 85.4001 74.6647 83.1634 72.8347 80.5201C69.5815 75.8434 64.0915 72.9969 58.1948 72.9969H50.2648C45.9948 72.9969 41.928 71.7769 38.6748 69.3369C31.3378 63.8342 19.8648 69.8218 14.2748 73.3931V69.1336H0.0415039V122H14.2748V115.9H40.708C44.7748 115.9 49.0448 115.493 53.1113 115.087L79.5445 111.02C80.5612 111.02 81.5778 110.817 82.3913 110.613C84.8313 110.207 87.068 108.987 89.1013 107.157L119.805 82.9601C122.245 80.9269 122.651 77.2669 120.821 74.8269ZM10.208 117.933H4.10801V73.2001H10.208V76.2501V115.9V117.933ZM117.365 80.3169L86.458 104.31L86.2547 104.513C84.8315 105.733 83.408 106.547 81.7815 106.75H81.5782C80.765 106.953 80.155 106.953 79.3415 106.953L52.5015 111.02C48.6382 111.63 44.5715 111.833 40.7082 111.833H14.2748V78.2834C19.1548 74.8266 30.5415 68.3201 36.2348 72.7934C40.098 75.6401 44.978 77.2666 50.2648 77.2666H58.1948C62.8715 77.2666 67.1415 79.2999 69.7847 83.3666C70.598 84.5866 70.8015 85.8066 70.598 86.2134C69.988 87.2301 67.548 87.6366 64.9047 87.8401C64.3393 87.8401 63.7753 87.8401 63.278 87.8401C63.0602 87.8401 62.8539 87.8401 62.668 87.8401H43.5548C37.2515 87.8401 33.388 90.8901 33.388 95.9734C33.388 97.1934 34.2013 98.0066 35.4213 98.0066C36.6413 98.0066 37.4545 97.1934 37.4545 95.9734C37.4545 94.9566 37.4545 91.9066 43.5545 91.9066H62.4645C62.7009 91.9066 62.9687 91.9066 63.2778 91.9066C63.7667 91.9066 64.3603 91.9066 65.1078 91.9066C65.311 91.9066 65.7178 91.9066 66.1245 91.9066C75.6813 92.1099 84.6278 91.9066 89.3045 89.4666L106.791 78.6899C115.331 74.4199 116.145 75.4366 117.771 77.8766C118.178 78.4869 118.178 79.7069 117.365 80.3169Z" fill="white"/>
    <path d="M91.5414 24.4001C96.0147 24.4001 99.6747 20.7401 99.6747 16.2668C99.6747 11.7935 96.0147 8.13354 91.5414 8.13354C87.0682 8.13354 83.4082 11.7935 83.4082 16.2668C83.4082 20.7401 87.068 24.4001 91.5414 24.4001ZM91.5414 12.2001C93.7782 12.2001 95.6082 14.0301 95.6082 16.2668C95.6082 18.5035 93.7782 20.3335 91.5414 20.3335C89.3047 20.3335 87.4747 18.5035 87.4747 16.2668C87.4747 14.0301 89.3047 12.2001 91.5414 12.2001Z" fill="white"/>
    <path d="M42.7415 63.2367C42.9448 64.2535 43.7583 64.8635 44.7748 64.8635H54.9415C56.1615 64.8635 56.9748 64.0502 57.1783 63.2367V57.1367H65.3115C66.5315 57.1367 67.3448 56.3235 67.3448 55.1035V49.0035H73.4448C74.6648 49.0035 75.4781 48.1902 75.4781 46.9702V40.8702H81.578C82.188 40.8702 82.7981 40.4635 83.2048 40.057C83.2048 40.057 84.8937 38.0611 86.4037 36.3372C87.4124 36.5071 88.4484 36.6002 89.5083 36.6002C99.675 36.6002 107.808 28.467 107.808 18.3002C107.808 8.1335 99.675 0.000244141 89.5083 0.000244141C79.3415 0.000244141 71.2083 8.1335 71.2083 18.3002C71.2083 19.5012 71.3255 20.6723 71.5424 21.8063L41.3181 51.24C40.7081 51.6467 40.5048 52.46 40.7081 53.07L42.7415 63.2367ZM89.5081 4.06675C97.4381 4.06675 103.741 10.37 103.741 18.3C103.741 26.23 97.4381 32.5333 89.5081 32.5333C88.2592 32.5333 87.0511 32.3762 85.9014 32.082C80.8925 30.6249 77.0926 26.7914 75.8848 21.96C75.8274 21.7875 75.7347 21.6162 75.6213 21.4527C75.3968 20.4398 75.2748 19.3859 75.2748 18.3C75.2748 10.37 81.5781 4.06675 89.5081 4.06675ZM72.8348 26.0267C73.2549 26.9139 73.7534 27.7557 74.3138 28.5521C74.3193 28.5602 74.3252 28.5683 74.3307 28.5764C74.3901 28.6605 74.4487 28.7453 74.5094 28.8285C76.324 31.4193 78.7928 33.5107 81.6869 34.8679C81.1298 35.4446 80.7429 36.0117 80.358 36.3965H73.2413C72.0213 36.3965 71.208 37.2098 71.208 38.4298V44.5298H65.108C63.8881 44.5298 63.0748 45.343 63.0748 46.563V52.663H54.9415C53.7215 52.663 52.9083 53.4763 52.9083 54.6963V60.7963H46.4015L44.9783 53.4763L72.8348 26.0267Z" fill="white"/>
</svg>
