<svg width="116" height="126" viewBox="0 0 116 126" fill="none" xmlns="http://www.w3.org/2000/svg">
    <path d="M113.214 121.753H109.674V10.618C109.674 9.44483 108.723 8.49442 107.551 8.49442H67.9102C66.7373 8.49442 65.7866 9.44483 65.7866 10.618V19.8201H61.5395V10.618C61.5395 9.44483 60.5886 8.49442 59.416 8.49442H50.2136V2.12354C50.2136 0.950414 49.2627 0 48.09 0C46.9174 0 45.9665 0.950414 45.9665 2.12354V8.49442H36.7643C35.5914 8.49442 34.6408 9.44483 34.6408 10.618V19.8201H28.2699C27.097 19.8201 26.1463 20.7706 26.1463 21.9437V39.6403H8.44974C7.27686 39.6403 6.3262 40.5907 6.3262 41.7638V121.753H2.78638C1.6135 121.753 0.662842 122.703 0.662842 123.876C0.662842 125.049 1.61375 126 2.78638 126H113.214C114.386 126 115.337 125.05 115.337 123.876C115.337 122.703 114.386 121.753 113.214 121.753ZM38.8876 12.7415H57.292V19.8201H38.8876V12.7415ZM31.809 121.753H30.3932V118.214C30.3932 117.04 29.4423 116.09 28.2696 116.09C27.097 116.09 26.1461 117.04 26.1461 118.214V121.753H24.7303V114.674H31.809V121.753ZM45.9662 67.2471V70.9003V121.753H36.056V112.551C36.056 111.378 35.1051 110.427 33.9325 110.427H22.6068C21.4339 110.427 20.4832 111.378 20.4832 112.551V121.753H10.573V43.8876H45.9662V67.2471ZM48.0898 39.6405H30.3932V24.0675H65.7864V65.1235H50.2136V58.0449H56.5844C57.7573 58.0449 58.708 57.0945 58.708 55.9214C58.708 54.7482 57.7571 53.7978 56.5844 53.7978H50.2136V46.7192H56.5844C57.7573 46.7192 58.708 45.7688 58.708 44.5956C58.708 43.4225 57.7571 42.4721 56.5844 42.4721H50.2136V41.7643C50.2136 40.591 49.2627 39.6405 48.0898 39.6405ZM85.6068 121.753H50.2136V70.9003V69.3709H85.6068V121.753ZM105.427 121.753H89.8539V67.2471V64.4155C89.8539 63.2424 88.903 62.292 87.7303 62.292C86.5577 62.292 85.6068 63.2424 85.6068 64.4155V65.1233H81.3597V64.4155C81.3597 63.2424 80.4088 62.292 79.2362 62.292C78.0635 62.292 77.1126 63.2424 77.1126 64.4155V65.1233H70.034V21.9439V12.7415H105.427V121.753H105.427Z" fill="white"/>
    <path d="M59.4158 117.506C60.5887 117.506 61.5393 116.555 61.5393 115.383V75.7424C61.5393 74.5693 60.5884 73.6189 59.4158 73.6189C58.2431 73.6189 57.2922 74.5693 57.2922 75.7424V115.383C57.2922 116.556 58.2429 117.506 59.4158 117.506Z" fill="white"/>
    <path d="M67.9102 117.506C69.083 117.506 70.0337 116.555 70.0337 115.383V75.7424C70.0337 74.5693 69.0828 73.6189 67.9102 73.6189C66.7375 73.6189 65.7866 74.5693 65.7866 75.7424V115.383C65.7864 116.556 66.7373 117.506 67.9102 117.506Z" fill="white"/>
    <path d="M76.4043 117.506C77.5772 117.506 78.5279 116.555 78.5279 115.383V75.7424C78.5279 74.5693 77.577 73.6189 76.4043 73.6189C75.2317 73.6189 74.2808 74.5693 74.2808 75.7424V115.383C74.2808 116.556 75.2317 117.506 76.4043 117.506Z" fill="white"/>
    <path d="M79.2358 26.8987C80.4087 26.8987 81.3594 25.9483 81.3594 24.7752V21.9439C81.3594 20.7707 80.4085 19.8203 79.2358 19.8203C78.0632 19.8203 77.1123 20.7707 77.1123 21.9439V24.7754C77.1123 25.9483 78.063 26.8987 79.2358 26.8987Z" fill="white"/>
    <path d="M87.7302 26.8987C88.9031 26.8987 89.8538 25.9483 89.8538 24.7752V21.9439C89.8538 20.7707 88.9029 19.8203 87.7302 19.8203C86.5576 19.8203 85.6067 20.7707 85.6067 21.9439V24.7754C85.6067 25.9483 86.5573 26.8987 87.7302 26.8987Z" fill="white"/>
    <path d="M96.2249 26.8987C97.3977 26.8987 98.3484 25.9483 98.3484 24.7752V21.9439C98.3484 20.7707 97.3975 19.8203 96.2249 19.8203C95.0522 19.8203 94.1013 20.7707 94.1013 21.9439V24.7754C94.1013 25.9483 95.052 26.8987 96.2249 26.8987Z" fill="white"/>
    <path d="M79.2358 41.0559C80.4087 41.0559 81.3594 40.1055 81.3594 38.9324V36.1008C81.3594 34.9277 80.4085 33.9773 79.2358 33.9773C78.0632 33.9773 77.1123 34.9277 77.1123 36.1008V38.9324C77.1123 40.1055 78.063 41.0559 79.2358 41.0559Z" fill="white"/>
    <path d="M87.7302 41.0559C88.9031 41.0559 89.8538 40.1055 89.8538 38.9324V36.1008C89.8538 34.9277 88.9029 33.9773 87.7302 33.9773C86.5576 33.9773 85.6067 34.9277 85.6067 36.1008V38.9324C85.6067 40.1055 86.5573 41.0559 87.7302 41.0559Z" fill="white"/>
    <path d="M96.2249 41.0559C97.3977 41.0559 98.3484 40.1055 98.3484 38.9324V36.1008C98.3484 34.9277 97.3975 33.9773 96.2249 33.9773C95.0522 33.9773 94.1013 34.9277 94.1013 36.1008V38.9324C94.1013 40.1055 95.052 41.0559 96.2249 41.0559Z" fill="white"/>
    <path d="M79.2358 55.2136C80.4087 55.2136 81.3594 54.2632 81.3594 53.0901V50.2586C81.3594 49.0854 80.4085 48.135 79.2358 48.135C78.0632 48.135 77.1123 49.0854 77.1123 50.2586V53.0901C77.1123 54.263 78.063 55.2136 79.2358 55.2136Z" fill="white"/>
    <path d="M87.7302 55.2136C88.9031 55.2136 89.8538 54.2632 89.8538 53.0901V50.2586C89.8538 49.0854 88.9029 48.135 87.7302 48.135C86.5576 48.135 85.6067 49.0854 85.6067 50.2586V53.0901C85.6067 54.263 86.5573 55.2136 87.7302 55.2136Z" fill="white"/>
    <path d="M96.2249 55.2136C97.3977 55.2136 98.3484 54.2632 98.3484 53.0901V50.2586C98.3484 49.0854 97.3975 48.135 96.2249 48.135C95.0522 48.135 94.1013 49.0854 94.1013 50.2586V53.0901C94.1013 54.263 95.052 55.2136 96.2249 55.2136Z" fill="white"/>
    <path d="M19.7754 60.8765C20.9483 60.8765 21.8989 59.9261 21.8989 58.753V55.9214C21.8989 54.7483 20.948 53.7979 19.7754 53.7979C18.6028 53.7979 17.6519 54.7483 17.6519 55.9214V58.753C17.6519 59.9258 18.6028 60.8765 19.7754 60.8765Z" fill="white"/>
    <path d="M28.2695 60.8765C29.4424 60.8765 30.3931 59.9261 30.3931 58.753V55.9214C30.3931 54.7483 29.4422 53.7979 28.2695 53.7979C27.0969 53.7979 26.146 54.7483 26.146 55.9214V58.753C26.146 59.9258 27.0967 60.8765 28.2695 60.8765Z" fill="white"/>
    <path d="M36.7642 60.8765C37.937 60.8765 38.8877 59.9261 38.8877 58.753V55.9214C38.8877 54.7483 37.9368 53.7979 36.7642 53.7979C35.5915 53.7979 34.6406 54.7483 34.6406 55.9214V58.753C34.6406 59.9258 35.5913 60.8765 36.7642 60.8765Z" fill="white"/>
    <path d="M19.7754 75.0337C20.9483 75.0337 21.8989 74.0833 21.8989 72.9102V70.0786C21.8989 68.9055 20.948 67.9551 19.7754 67.9551C18.6028 67.9551 17.6519 68.9055 17.6519 70.0786V72.9102C17.6519 74.0831 18.6028 75.0337 19.7754 75.0337Z" fill="white"/>
    <path d="M28.2695 75.0337C29.4424 75.0337 30.3931 74.0833 30.3931 72.9102V70.0786C30.3931 68.9055 29.4422 67.9551 28.2695 67.9551C27.0969 67.9551 26.146 68.9055 26.146 70.0786V72.9102C26.146 74.0831 27.0967 75.0337 28.2695 75.0337Z" fill="white"/>
    <path d="M36.7642 75.0337C37.937 75.0337 38.8877 74.0833 38.8877 72.9102V70.0786C38.8877 68.9055 37.9368 67.9551 36.7642 67.9551C35.5915 67.9551 34.6406 68.9055 34.6406 70.0786V72.9102C34.6406 74.0831 35.5913 75.0337 36.7642 75.0337Z" fill="white"/>
    <path d="M19.7754 89.1912C20.9483 89.1912 21.8989 88.2408 21.8989 87.0676V84.2361C21.8989 83.063 20.948 82.1125 19.7754 82.1125C18.6028 82.1125 17.6519 83.063 17.6519 84.2361V87.0676C17.6519 88.2408 18.6028 89.1912 19.7754 89.1912Z" fill="white"/>
    <path d="M28.2695 89.1912C29.4424 89.1912 30.3931 88.2408 30.3931 87.0676V84.2361C30.3931 83.063 29.4422 82.1125 28.2695 82.1125C27.0969 82.1125 26.146 83.063 26.146 84.2361V87.0676C26.146 88.2408 27.0967 89.1912 28.2695 89.1912Z" fill="white"/>
    <path d="M36.7642 89.1912C37.937 89.1912 38.8877 88.2408 38.8877 87.0676V84.2361C38.8877 83.063 37.9368 82.1125 36.7642 82.1125C35.5915 82.1125 34.6406 83.063 34.6406 84.2361V87.0676C34.6406 88.2408 35.5913 89.1912 36.7642 89.1912Z" fill="white"/>
    <path d="M19.7754 103.348C20.9483 103.348 21.8989 102.398 21.8989 101.225V98.3931C21.8989 97.2199 20.948 96.2695 19.7754 96.2695C18.6028 96.2695 17.6519 97.2199 17.6519 98.3931V101.225C17.6519 102.398 18.6028 103.348 19.7754 103.348Z" fill="white"/>
    <path d="M28.2695 103.348C29.4424 103.348 30.3931 102.398 30.3931 101.225V98.3931C30.3931 97.2199 29.4422 96.2695 28.2695 96.2695C27.0969 96.2695 26.146 97.2199 26.146 98.3931V101.225C26.146 102.398 27.0967 103.348 28.2695 103.348Z" fill="white"/>
    <path d="M36.7642 103.348C37.937 103.348 38.8877 102.398 38.8877 101.225V98.3931C38.8877 97.2199 37.9368 96.2695 36.7642 96.2695C35.5915 96.2695 34.6406 97.2199 34.6406 98.3931V101.225C34.6406 102.398 35.5913 103.348 36.7642 103.348Z" fill="white"/>
    <path d="M96.2249 69.3709C97.3977 69.3709 98.3484 68.4205 98.3484 67.2473V64.4158C98.3484 63.2427 97.3975 62.2922 96.2249 62.2922C95.0522 62.2922 94.1013 63.2427 94.1013 64.4158V67.2473C94.1013 68.4202 95.052 69.3709 96.2249 69.3709Z" fill="white"/>
    <path d="M96.2249 83.5283C97.3977 83.5283 98.3484 82.5779 98.3484 81.4048V78.5732C98.3484 77.4001 97.3975 76.4497 96.2249 76.4497C95.0522 76.4497 94.1013 77.4001 94.1013 78.5732V81.4048C94.1013 82.5777 95.052 83.5283 96.2249 83.5283Z" fill="white"/>
    <path d="M96.2249 97.6856C97.3977 97.6856 98.3484 96.7352 98.3484 95.562V92.7305C98.3484 91.5573 97.3975 90.6069 96.2249 90.6069C95.0522 90.6069 94.1013 91.5573 94.1013 92.7305V95.562C94.1013 96.7349 95.052 97.6856 96.2249 97.6856Z" fill="white"/>
    <path d="M96.2249 111.843C97.3977 111.843 98.3484 110.892 98.3484 109.719V106.888C98.3484 105.715 97.3975 104.764 96.2249 104.764C95.0522 104.764 94.1013 105.715 94.1013 106.888V109.719C94.1013 110.892 95.052 111.843 96.2249 111.843Z" fill="white"/>
    <path d="M58.7076 33.2695C58.7076 32.0964 57.7567 31.146 56.5841 31.146H39.5952C38.4223 31.146 37.4717 32.0964 37.4717 33.2695C37.4717 34.4427 38.4226 35.3931 39.5952 35.3931H56.5841C57.757 35.3931 58.7076 34.4427 58.7076 33.2695Z" fill="white"/>
</svg>
