<svg width="116" height="116" viewBox="0 0 116 116" fill="none" xmlns="http://www.w3.org/2000/svg">
    <path d="M101.844 86.5937H96.1249C95.6193 86.5937 95.1344 86.3929 94.7769 86.0354C94.4194 85.6779 94.2186 85.1931 94.2186 84.6875V82.2856C95.9815 81.0561 97.4219 79.4196 98.4174 77.5147C99.413 75.6099 99.9344 73.493 99.9374 71.3437C101.453 71.3392 102.905 70.7353 103.976 69.6638C105.048 68.5923 105.652 67.1403 105.656 65.625V63.7187C105.653 62.919 105.482 62.1288 105.154 61.3997C104.825 60.6705 104.347 60.0188 103.75 59.4869V50.375C103.75 47.8472 102.746 45.4228 100.958 43.6354C99.1708 41.8479 96.7465 40.8437 94.2186 40.8437V37.87L97.2114 39.4712C98.2114 40.142 99.3757 40.5267 100.578 40.5838C101.781 40.6409 102.977 40.3683 104.036 39.7953C105.069 39.2406 105.937 38.4243 106.556 37.4283C107.174 36.4322 107.519 35.2913 107.558 34.1196C107.597 32.948 107.327 31.7867 106.776 30.7521C106.224 29.7175 105.411 28.8459 104.417 28.2244L55.1024 1.04125C54.8208 0.891061 54.5065 0.8125 54.1874 0.8125C53.8682 0.8125 53.554 0.891061 53.2724 1.04125L3.82423 28.3006C2.85621 28.939 2.07043 29.8176 1.5437 30.8506C1.01697 31.8836 0.76734 33.0357 0.819208 34.194C0.871076 35.3524 1.22267 36.4775 1.83961 37.4593C2.45655 38.4411 3.31772 39.246 4.33892 39.7953C5.32551 40.3184 6.42472 40.5932 7.54142 40.5959C8.77473 40.607 9.9831 40.2485 11.0108 39.5666L14.1561 37.87V77.0625H11.2777C10.4212 77.0621 9.57564 77.2541 8.80335 77.6243C8.03105 77.9945 7.35176 78.5335 6.81563 79.2013C6.2795 79.8692 5.90023 80.649 5.70581 81.483C5.51139 82.3171 5.50679 83.1842 5.69235 84.0203L11.6399 110.708C11.9135 111.979 12.6158 113.118 13.6291 113.934C14.6425 114.75 15.9053 115.192 17.2061 115.187H113.281C113.787 115.187 114.272 114.987 114.629 114.629C114.987 114.272 115.187 113.787 115.187 113.281V99.9375C115.183 96.3997 113.776 93.0081 111.275 90.5065C108.773 88.0049 105.381 86.5978 101.844 86.5937ZM95.2099 90.3109C94.1349 91.5385 92.8101 92.5222 91.3241 93.1962C89.8381 93.8701 88.2253 94.2188 86.5936 94.2188C84.9619 94.2188 83.3491 93.8701 81.8631 93.1962C80.3771 92.5222 79.0523 91.5385 77.9774 90.3109C79.3159 90.0979 80.5348 89.4147 81.4152 88.3841C82.2955 87.3535 82.7798 86.0429 82.7811 84.6875V84.1347C85.2693 84.8717 87.9179 84.8717 90.4061 84.1347V84.6875C90.4074 86.0429 90.8917 87.3535 91.7721 88.3841C92.6524 89.4147 93.8713 90.0979 95.2099 90.3109ZM96.1249 71.3437C96.1249 73.8716 95.1207 76.2959 93.3332 78.0834C91.5458 79.8708 89.1215 80.875 86.5936 80.875C84.0658 80.875 81.6415 79.8708 79.854 78.0834C78.0665 76.2959 77.0624 73.8716 77.0624 71.3437L77.2149 58C78.7175 57.9966 80.1988 57.6442 81.542 56.9706L82.7811 56.3225L83.8867 56.9134C85.2541 57.6207 86.7698 57.9931 88.3092 58H96.1249V71.3437ZM101.844 63.7187V65.625C101.844 66.1306 101.643 66.6154 101.285 66.9729C100.928 67.3304 100.443 67.5312 99.9374 67.5312V61.8125C100.443 61.8125 100.928 62.0133 101.285 62.3708C101.643 62.7283 101.844 63.2132 101.844 63.7187ZM99.9374 50.375V58C99.9343 56.9898 99.5317 56.0218 98.8174 55.3075C98.103 54.5932 97.1351 54.1905 96.1249 54.1875H88.3092C87.3873 54.1833 86.4793 53.9613 85.6595 53.5394L83.677 52.4909C83.4061 52.3506 83.1053 52.2773 82.8002 52.2773C82.495 52.2773 82.1943 52.3506 81.9233 52.4909L79.8074 53.5584C78.9583 53.9915 78.0153 54.2076 77.0624 54.1875C76.0521 54.1905 75.0842 54.5932 74.3699 55.3075C73.6555 56.0218 73.2529 56.9898 73.2499 58V50.375C73.2529 49.3648 73.6555 48.3968 74.3699 47.6825C75.0842 46.9682 76.0521 46.5655 77.0624 46.5625H78.9686C79.4742 46.5625 79.959 46.7633 80.3165 47.1208C80.674 47.4783 80.8749 47.9632 80.8749 48.4687C80.8749 48.9743 81.0757 49.4592 81.4332 49.8167C81.7907 50.1742 82.2755 50.375 82.7811 50.375C83.2867 50.375 83.7715 50.1742 84.129 49.8167C84.4865 49.4592 84.6874 48.9743 84.6874 48.4687V46.5625C84.6874 46.0569 84.8882 45.5721 85.2457 45.2146C85.6032 44.8571 86.088 44.6562 86.5936 44.6562H94.2186C95.7339 44.6608 97.1859 45.2647 98.2574 46.3362C99.3289 47.4077 99.9328 48.8597 99.9374 50.375ZM9.06642 36.3069C8.63423 36.594 8.13206 36.7581 7.61373 36.7816C7.09539 36.8051 6.58043 36.6872 6.12402 36.4403C5.66762 36.1935 5.28697 35.8272 5.02288 35.3806C4.75878 34.9339 4.62119 34.4239 4.62485 33.905C4.61811 33.4525 4.72022 33.0051 4.92259 32.6003C5.12496 32.1956 5.42165 31.8454 5.78767 31.5794L54.1874 4.89187L102.454 31.5031C102.869 31.7768 103.207 32.1535 103.434 32.5966C103.661 33.0396 103.769 33.5339 103.747 34.0311C103.726 34.5284 103.577 35.0117 103.313 35.4339C103.05 35.8561 102.681 36.2029 102.244 36.4403C101.757 36.6882 101.212 36.798 100.668 36.7577C100.123 36.7173 99.6004 36.5284 99.1558 36.2116L55.0833 12.4787C54.8085 12.3286 54.5005 12.2499 54.1874 12.2499C53.8743 12.2499 53.5662 12.3286 53.2914 12.4787L9.06642 36.3069ZM17.2061 111.375C16.7738 111.378 16.3538 111.232 16.017 110.961C15.6801 110.69 15.447 110.311 15.357 109.888L9.4286 83.2006C9.36287 82.9207 9.3613 82.6296 9.42403 82.349C9.48675 82.0684 9.61213 81.8056 9.79079 81.5803C9.97216 81.3614 10.1992 81.1848 10.4561 81.063C10.713 80.9411 10.9934 80.877 11.2777 80.875H53.0436C53.4759 80.8721 53.8959 81.0185 54.2328 81.2894C54.5696 81.5602 54.8027 81.9391 54.8927 82.3619L61.3358 111.375H17.2061ZM60.8783 91.7406L58.6099 81.5422C58.3363 80.2705 57.6339 79.1315 56.6206 78.3159C55.6072 77.5004 54.3444 77.0579 53.0436 77.0625H17.9686V36.7453C17.9643 36.4616 17.8993 36.1821 17.778 35.9256L54.1874 16.3294L90.4061 35.8112V40.8437H86.5936C85.6318 40.8442 84.6856 41.0872 83.8426 41.5504C82.9996 42.0135 82.287 42.6818 81.7708 43.4934C80.9183 43.0036 79.9518 42.7472 78.9686 42.75H77.0624C75.0401 42.75 73.1006 43.5533 71.6707 44.9833C70.2407 46.4133 69.4374 48.3527 69.4374 50.375V59.4869C68.8402 60.0188 68.3618 60.6705 68.0333 61.3997C67.7049 62.1288 67.5337 62.919 67.5311 63.7187V65.625C67.5356 67.1403 68.1396 68.5923 69.2111 69.6638C70.2826 70.7353 71.7345 71.3392 73.2499 71.3437C73.2529 73.493 73.7743 75.6099 74.7698 77.5147C75.7654 79.4196 77.2057 81.0561 78.9686 82.2856V84.6875C78.9686 85.1931 78.7678 85.6779 78.4103 86.0354C78.0528 86.3929 77.5679 86.5937 77.0624 86.5937H71.3436C69.3244 86.6092 67.3347 87.08 65.5227 87.9711C63.7107 88.8623 62.1232 90.1507 60.8783 91.7406ZM73.2499 61.8125V67.5312C72.7443 67.5312 72.2594 67.3304 71.9019 66.9729C71.5444 66.6154 71.3436 66.1306 71.3436 65.625V63.7187C71.3436 63.2132 71.5444 62.7283 71.9019 62.3708C72.2594 62.0133 72.7443 61.8125 73.2499 61.8125ZM80.8749 111.375H65.2436L64.4049 107.562H84.6874C84.6843 108.573 84.2817 109.541 83.5674 110.255C82.853 110.969 81.8851 111.372 80.8749 111.375ZM111.375 111.375H103.75V101.844C103.75 101.338 103.549 100.853 103.192 100.496C102.834 100.138 102.349 99.9375 101.844 99.9375C101.338 99.9375 100.853 100.138 100.496 100.496C100.138 100.853 99.9374 101.338 99.9374 101.844V111.375H87.4324C88.1257 110.224 88.4946 108.906 88.4999 107.562V105.656C88.4999 105.151 88.299 104.666 87.9415 104.308C87.584 103.951 87.0992 103.75 86.5936 103.75H63.547L62.1555 97.4784C62.702 95.4566 63.8968 93.6698 65.5565 92.3923C67.2162 91.1148 69.2492 90.4171 71.3436 90.4062H73.4405C74.7671 92.7231 76.6821 94.6485 78.9918 95.9875C81.3014 97.3265 83.9238 98.0317 86.5936 98.0317C89.2634 98.0317 91.8858 97.3265 94.1955 95.9875C96.5051 94.6485 98.4202 92.7231 99.7467 90.4062H101.844C104.371 90.4062 106.796 91.4104 108.583 93.1979C110.371 94.9853 111.375 97.4097 111.375 99.9375V111.375Z" fill="white"/>
    <path d="M35.125 101.844C33.9939 101.844 32.8883 101.508 31.9478 100.88C31.0074 100.252 30.2744 99.3584 29.8416 98.3135C29.4087 97.2685 29.2955 96.1187 29.5161 95.0093C29.7368 93.9 30.2815 92.881 31.0812 92.0812C31.881 91.2815 32.9 90.7368 34.0093 90.5161C35.1187 90.2955 36.2685 90.4087 37.3135 90.8416C38.3584 91.2744 39.2516 92.0074 39.88 92.9478C40.5083 93.8883 40.8437 94.9939 40.8437 96.125C40.8437 97.6417 40.2412 99.0963 39.1688 100.169C38.0963 101.241 36.6417 101.844 35.125 101.844ZM35.125 94.2188C34.748 94.2188 34.3794 94.3306 34.0659 94.54C33.7525 94.7495 33.5081 95.0472 33.3639 95.3955C33.2196 95.7438 33.1818 96.1271 33.2554 96.4969C33.3289 96.8667 33.5105 97.2063 33.7771 97.4729C34.0437 97.7395 34.3833 97.9211 34.7531 97.9946C35.1229 98.0682 35.5062 98.0304 35.8545 97.8861C36.2028 97.7419 36.5005 97.4975 36.71 97.1841C36.9195 96.8706 37.0312 96.502 37.0312 96.125C37.0312 95.6194 36.8304 95.1346 36.4729 94.7771C36.1154 94.4196 35.6306 94.2188 35.125 94.2188Z" fill="white"/>
    <path d="M27.5 65.625H38.2646L47.224 72.8287C47.5606 73.0997 47.9794 73.2483 48.4116 73.25C48.9145 73.25 49.3971 73.0513 49.7541 72.6971C50.1112 72.3429 50.3138 71.8619 50.3178 71.359L50.3598 65.625H58C59.5167 65.625 60.9713 65.0225 62.0438 63.95C63.1162 62.8775 63.7188 61.423 63.7188 59.9062V40.8438C63.7188 39.327 63.1162 37.8725 62.0438 36.8C60.9713 35.7275 59.5167 35.125 58 35.125H27.5C25.9833 35.125 24.5287 35.7275 23.4562 36.8C22.3838 37.8725 21.7812 39.327 21.7812 40.8438V59.9062C21.7812 61.423 22.3838 62.8775 23.4562 63.95C24.5287 65.0225 25.9833 65.625 27.5 65.625ZM25.5938 40.8438C25.5938 40.3382 25.7946 39.8533 26.1521 39.4958C26.5096 39.1383 26.9944 38.9375 27.5 38.9375H58C58.5056 38.9375 58.9904 39.1383 59.3479 39.4958C59.7054 39.8533 59.9063 40.3382 59.9063 40.8438V59.9062C59.9063 60.4118 59.7054 60.8967 59.3479 61.2542C58.9904 61.6117 58.5056 61.8125 58 61.8125H48.4688C47.9658 61.8125 47.4832 62.0112 47.1262 62.3654C46.7691 62.7196 46.5665 63.2006 46.5625 63.7035L46.5339 67.3864L40.1327 62.2395C39.7948 61.9648 39.373 61.8141 38.9375 61.8125H27.5C26.9944 61.8125 26.5096 61.6117 26.1521 61.2542C25.7946 60.8967 25.5938 60.4118 25.5938 59.9062V40.8438Z" fill="white"/>
    <path d="M31.3125 46.5625H33.2188C33.7243 46.5625 34.2092 46.3617 34.5667 46.0042C34.9242 45.6467 35.125 45.1618 35.125 44.6562C35.125 44.1507 34.9242 43.6658 34.5667 43.3083C34.2092 42.9508 33.7243 42.75 33.2188 42.75H31.3125C30.8069 42.75 30.3221 42.9508 29.9646 43.3083C29.6071 43.6658 29.4062 44.1507 29.4062 44.6562C29.4062 45.1618 29.6071 45.6467 29.9646 46.0042C30.3221 46.3617 30.8069 46.5625 31.3125 46.5625Z" fill="white"/>
    <path d="M38.9375 46.5625H54.1875C54.6931 46.5625 55.1779 46.3617 55.5354 46.0042C55.8929 45.6467 56.0938 45.1618 56.0938 44.6562C56.0938 44.1507 55.8929 43.6658 55.5354 43.3083C55.1779 42.9508 54.6931 42.75 54.1875 42.75H38.9375C38.4319 42.75 37.9471 42.9508 37.5896 43.3083C37.2321 43.6658 37.0312 44.1507 37.0312 44.6562C37.0312 45.1618 37.2321 45.6467 37.5896 46.0042C37.9471 46.3617 38.4319 46.5625 38.9375 46.5625Z" fill="white"/>
    <path d="M38.9375 52.2812H54.1875C54.6931 52.2812 55.1779 52.0804 55.5354 51.7229C55.8929 51.3654 56.0938 50.8806 56.0938 50.375C56.0938 49.8694 55.8929 49.3846 55.5354 49.0271C55.1779 48.6696 54.6931 48.4688 54.1875 48.4688H38.9375C38.4319 48.4688 37.9471 48.6696 37.5896 49.0271C37.2321 49.3846 37.0312 49.8694 37.0312 50.375C37.0312 50.8806 37.2321 51.3654 37.5896 51.7229C37.9471 52.0804 38.4319 52.2812 38.9375 52.2812Z" fill="white"/>
    <path d="M31.3125 52.2812H33.2188C33.7243 52.2812 34.2092 52.0804 34.5667 51.7229C34.9242 51.3654 35.125 50.8806 35.125 50.375C35.125 49.8694 34.9242 49.3846 34.5667 49.0271C34.2092 48.6696 33.7243 48.4688 33.2188 48.4688H31.3125C30.8069 48.4688 30.3221 48.6696 29.9646 49.0271C29.6071 49.3846 29.4062 49.8694 29.4062 50.375C29.4062 50.8806 29.6071 51.3654 29.9646 51.7229C30.3221 52.0804 30.8069 52.2812 31.3125 52.2812Z" fill="white"/>
    <path d="M31.3125 58H33.2188C33.7243 58 34.2092 57.7992 34.5667 57.4417C34.9242 57.0842 35.125 56.5993 35.125 56.0938C35.125 55.5882 34.9242 55.1033 34.5667 54.7458C34.2092 54.3883 33.7243 54.1875 33.2188 54.1875H31.3125C30.8069 54.1875 30.3221 54.3883 29.9646 54.7458C29.6071 55.1033 29.4062 55.5882 29.4062 56.0938C29.4062 56.5993 29.6071 57.0842 29.9646 57.4417C30.3221 57.7992 30.8069 58 31.3125 58Z" fill="white"/>
    <path d="M38.9375 58H54.1875C54.6931 58 55.1779 57.7992 55.5354 57.4417C55.8929 57.0842 56.0938 56.5993 56.0938 56.0938C56.0938 55.5882 55.8929 55.1033 55.5354 54.7458C55.1779 54.3883 54.6931 54.1875 54.1875 54.1875H38.9375C38.4319 54.1875 37.9471 54.3883 37.5896 54.7458C37.2321 55.1033 37.0312 55.5882 37.0312 56.0938C37.0312 56.5993 37.2321 57.0842 37.5896 57.4417C37.9471 57.7992 38.4319 58 38.9375 58Z" fill="white"/>
</svg>
