<svg width="16" height="16" viewBox="0 0 16 16" fill="none" xmlns="http://www.w3.org/2000/svg">
<g clip-path="url(#clip0)">
<path d="M8.43906 12.1382L15.8191 4.73778C16.0607 4.49531 16.0603 4.10275 15.8178 3.86069C15.5753 3.61881 15.1826 3.61944 14.9407 3.86194L7.99997 10.8219L1.05925 3.86168C0.817376 3.61922 0.424847 3.61859 0.182347 3.86043C0.0607853 3.98178 3.79453e-06 4.14075 3.78758e-06 4.29971C3.78065e-06 4.45828 0.060379 4.61662 0.181097 4.73774L7.56091 12.1382C7.6771 12.255 7.83522 12.3206 7.99997 12.3206C8.16472 12.3206 8.32266 12.2548 8.43906 12.1382Z" fill="white"/>
</g>
<defs>
<clipPath id="clip0">
<rect width="16" height="16" fill="white" transform="translate(16) rotate(90)"/>
</clipPath>
</defs>
</svg>
