<svg width="33" height="33" viewBox="0 0 33 33" fill="none" xmlns="http://www.w3.org/2000/svg">
<g clip-path="url(#clip0)">
<path d="M29.6037 21.4303C27.7076 21.434 25.823 21.1343 24.0216 20.5425C23.1792 20.2484 22.2433 20.4466 21.5925 21.0569L18.0578 23.7235C14.2617 21.8176 11.1817 18.7381 9.27508 14.9424L11.8712 11.4929C12.5267 10.8369 12.7611 9.87004 12.4789 8.98678C11.885 7.18284 11.5836 5.29553 11.5862 3.39639C11.5862 2.03947 10.4862 0.939453 9.12928 0.939453H3.39639C2.03947 0.939453 0.939453 2.03947 0.939453 3.39639C0.957496 19.2198 13.7803 32.0426 29.6037 32.0607C30.9606 32.0607 32.0607 30.9606 32.0607 29.6037V23.8873C32.0607 22.5303 30.9606 21.4303 29.6037 21.4303Z" fill="white"/>
</g>
<defs>
<clipPath id="clip0">
<rect width="31.1212" height="31.1212" fill="white" transform="translate(0.939453 0.939453)"/>
</clipPath>
</defs>
</svg>
