<svg width="23" height="23" viewBox="0 0 23 23" fill="none" xmlns="http://www.w3.org/2000/svg">
<path d="M21.1842 15.1437C19.7829 15.1464 18.3901 14.9249 17.0587 14.4876C16.4362 14.2702 15.7445 14.4166 15.2635 14.8677L12.6512 16.8385C9.84579 15.4299 7.56946 13.154 6.16041 10.3488L8.07908 7.79945C8.5635 7.31469 8.73673 6.60012 8.5282 5.94734C8.08924 4.61415 7.86652 3.21934 7.86845 1.81579C7.86845 0.812964 7.05548 0 6.05266 0H1.81579C0.812964 0 0 0.812964 0 1.81579C0.0133347 13.51 9.49 22.9867 21.1842 23C22.187 23 23 22.187 23 21.1842V16.9595C23 15.9567 22.187 15.1437 21.1842 15.1437Z" fill="#50BF04"/>
</svg>
