<svg width="38" height="38" viewBox="0 0 38 38" fill="none" xmlns="http://www.w3.org/2000/svg">
<g clip-path="url(#clip0)">
<path d="M34.6601 4.52734H3.3398C2.82569 4.52734 2.34438 4.65374 1.90894 4.86207L18.9257 21.8789L22.7398 18.2134C22.7398 18.2134 22.7401 18.2131 22.7401 18.2129C22.7402 18.2128 22.7405 18.2126 22.7405 18.2126L36.0915 4.86237C35.656 4.65389 35.1744 4.52734 34.6601 4.52734Z" fill="white"/>
<path d="M37.6658 6.43677L25.1018 19.0001L37.6653 31.5636C37.8737 31.1282 38.0001 30.6469 38.0001 30.1327V7.86711C38.0001 7.3533 37.874 6.87206 37.6658 6.43677Z" fill="white"/>
<path d="M0.334727 6.43628C0.126395 6.87172 0 7.35303 0 7.86714V30.1328C0 30.6466 0.126246 31.128 0.33443 31.5633L12.8984 19L0.334727 6.43628Z" fill="white"/>
<path d="M23.5275 20.5744L19.7129 24.2403C19.4955 24.4577 19.2106 24.5664 18.9258 24.5664C18.6411 24.5664 18.3561 24.4577 18.1387 24.2403L14.4726 20.5742L1.90845 33.1376C2.34396 33.3461 2.82557 33.4726 3.33983 33.4726H34.6601C35.1743 33.4726 35.6556 33.3462 36.091 33.1379L23.5275 20.5744Z" fill="white"/>
</g>
<defs>
<clipPath id="clip0">
<rect width="38" height="38" fill="white"/>
</clipPath>
</defs>
</svg>
