<svg width="31" height="31" viewBox="0 0 31 31" fill="none" xmlns="http://www.w3.org/2000/svg">
    <path d="M0.436038 2.5861C-0.145346 2.00486 -0.145346 1.03749 0.436038 0.435928C1.03775 -0.145309 1.98504 -0.145309 2.58675 0.435928L15.4924 13.36L28.4197 0.435928C29.0011 -0.145309 29.9687 -0.145309 30.5487 0.435928C31.1504 1.03749 31.1504 2.00622 30.5487 2.5861L17.6431 15.4898L30.5487 28.4139C31.1504 28.9951 31.1504 29.9625 30.5487 30.5641C29.9673 31.1453 28.9997 31.1453 28.4197 30.5641L15.4924 17.64L2.58675 30.5641C1.98504 31.1453 1.03775 31.1453 0.436038 30.5641C-0.145346 29.9625 -0.145346 28.9938 0.436038 28.4139L13.3417 15.4898L0.436038 2.5861Z" fill="white"/>
</svg>
