<svg width="30" height="33" viewBox="0 0 30 33" fill="none" xmlns="http://www.w3.org/2000/svg">
<path d="M29.6936 19.0361C30.6699 10.8174 29.2245 5.62876 26.6172 3.28193L26.6185 3.28057C22.4103 -0.727175 8.19848 -1.32036 3.16392 3.46057C0.902999 5.79921 0.106632 9.2315 0.019359 13.4806C-0.067914 17.7311 -0.171551 25.6934 7.24802 27.8534H7.25484L7.24802 31.152C7.24802 31.152 7.19757 32.4884 8.0512 32.757C9.02757 33.0734 9.46939 32.4529 12.5062 28.8257C17.5844 29.2661 21.4844 28.257 21.9276 28.1097C22.9531 27.7661 28.7554 26.9984 29.6936 19.0361ZM13.0067 26.5047C13.0067 26.5047 9.79257 30.5125 8.79303 31.5529C8.46575 31.8911 8.10711 31.8598 8.11257 31.1888C8.11257 30.7484 8.13711 25.7125 8.13711 25.7125C1.84664 23.9097 2.21755 17.1297 2.28573 13.5829C2.35391 10.0347 3.00301 7.12876 4.91756 5.17194C9.33439 1.03056 21.794 1.95647 24.9685 4.94012C28.8495 8.38058 27.4681 18.1006 27.4763 18.432C26.6785 25.0784 21.9767 25.4997 21.1122 25.7875C20.7426 25.9102 17.3131 26.7925 13.0067 26.5047Z" fill="#7B519D"/>
<path d="M14.7849 5.95044C14.2599 5.95044 14.2599 6.76862 14.7849 6.77544C18.8581 6.80681 22.2126 9.64591 22.2494 14.8537C22.2494 15.4032 23.054 15.3964 23.0472 14.8468H23.0458C23.0022 9.23545 19.3394 5.9818 14.7849 5.95044Z" fill="#7B519D"/>
<path d="M20.1425 13.9907C20.1303 14.5335 20.9335 14.5594 20.9403 14.0098C21.0071 10.9157 19.0993 8.36709 15.5143 8.09845C14.9893 8.06027 14.9348 8.88527 15.4584 8.92346C18.5675 9.15937 20.2053 11.2812 20.1425 13.9907Z" fill="#7B519D"/>
<path d="M19.2831 17.5102C18.6095 17.1202 17.9236 17.3629 17.6399 17.7461L17.0467 18.5138C16.7454 18.9038 16.1822 18.852 16.1822 18.852C12.0722 17.7652 10.9731 13.4642 10.9731 13.4642C10.9731 13.4642 10.9226 12.882 11.299 12.5697L12.0408 11.956C12.4117 11.6615 12.6463 10.9524 12.2685 10.2556C11.2595 8.4324 10.5817 7.80376 10.2367 7.32103C9.87399 6.86694 9.32854 6.76466 8.76126 7.07148H8.74899C7.56944 7.76149 6.27808 9.05285 6.69126 10.3824C7.39626 11.7842 8.69172 16.2529 12.8208 19.6293C14.7613 21.2261 17.8322 22.8624 19.1358 23.2402L19.1481 23.2593C20.4327 23.6875 21.6817 22.3456 22.3486 21.1306V21.1211C22.6445 20.5333 22.5463 19.977 22.114 19.6129C21.3477 18.8656 20.1913 18.0406 19.2831 17.5102Z" fill="#7B519D"/>
<path d="M16.0759 11.142C17.3864 11.2184 18.0218 11.903 18.09 13.3089C18.1146 13.8584 18.9123 13.8202 18.8878 13.2707C18.8005 11.4352 17.8432 10.4125 16.1196 10.317C15.5945 10.2857 15.5455 11.1107 16.0759 11.142Z" fill="#7B519D"/>
</svg>
