<svg width="125" height="125" viewBox="0 0 125 125" fill="none" xmlns="http://www.w3.org/2000/svg">
<circle cx="62.5" cy="62.5" r="62" stroke="#237CC8"/>
<g clip-path="url(#clip0)">
<path d="M87.0277 76.758L81.4847 73.0624L76.5571 69.7779C75.6062 69.1452 74.3281 69.3527 73.6261 70.2538L70.577 74.1736C69.922 75.0242 68.7438 75.2686 67.8046 74.7486C65.7357 73.5977 63.2891 72.5141 57.8909 67.109C52.4928 61.7039 51.4022 59.2643 50.2514 57.1954C49.7314 56.2561 49.9758 55.0779 50.8264 54.423L54.7461 51.374C55.6472 50.672 55.8547 49.394 55.222 48.4429L52.0385 43.6671L48.2419 37.9723C47.5957 37.0029 46.3022 36.7119 45.3032 37.311L40.9247 39.9378C39.7414 40.6349 38.8716 41.7607 38.4955 43.0817C37.2981 47.4471 37.0567 57.0772 52.4901 72.5106C67.9235 87.944 77.5527 87.7019 81.9182 86.5044C83.2392 86.1283 84.3649 85.2585 85.0621 84.0751L87.6888 79.6968C88.288 78.6977 87.997 77.4042 87.0277 76.758Z" fill="#237CC8"/>
<path d="M66.4479 44.7583C74.5379 44.7673 81.094 51.3232 81.1029 59.4133C81.1029 59.8894 81.4889 60.2754 81.965 60.2754C82.4411 60.2754 82.8271 59.8895 82.8271 59.4133C82.8172 50.3715 75.4898 43.0441 66.448 43.0342C65.972 43.0342 65.5859 43.4201 65.5859 43.8963C65.5858 44.3723 65.9718 44.7583 66.4479 44.7583Z" fill="#237CC8"/>
<path d="M66.448 49.9307C71.6826 49.9369 75.9245 54.1788 75.9306 59.4134C75.9306 59.8894 76.3166 60.2755 76.7927 60.2755C77.2688 60.2755 77.6548 59.8895 77.6548 59.4134C77.6477 53.227 72.6345 48.2137 66.448 48.2065C65.972 48.2065 65.5859 48.5925 65.5859 49.0686C65.5859 49.5448 65.9719 49.9307 66.448 49.9307Z" fill="#237CC8"/>
<path d="M66.4479 55.103C68.8273 55.1058 70.7554 57.0339 70.7582 59.4133C70.7582 59.8894 71.1442 60.2754 71.6203 60.2754C72.0964 60.2754 72.4824 59.8895 72.4824 59.4133C72.4786 56.0822 69.7791 53.3827 66.448 53.3789C65.972 53.3789 65.5859 53.7648 65.5859 54.241C65.5858 54.7171 65.9718 55.103 66.4479 55.103Z" fill="#237CC8"/>
</g>
<defs>
<clipPath id="clip0">
<rect width="50" height="50" fill="white" transform="translate(38 37)"/>
</clipPath>
</defs>
</svg>
