<svg width="34" height="35" viewBox="0 0 34 35" fill="none" xmlns="http://www.w3.org/2000/svg">
<path d="M31.1614 1.07666H2.80385C1.83285 1.07726 1.0457 1.88796 1.0459 2.88792V32.0795C1.04648 33.0791 1.83402 33.8894 2.8054 33.8892H18.0729V21.2H13.9329V16.2332H18.0729V12.5781C18.0729 8.33931 20.5867 6.03218 24.2597 6.03218C26.0191 6.03218 27.5309 6.16716 27.9716 6.22745V10.6577H25.4387C23.4403 10.6577 23.0533 11.6352 23.0533 13.0699V16.2332H27.8315L27.2089 21.2H23.0533V33.8892H31.1614C32.133 33.8894 32.9207 33.0789 32.9209 32.0787C32.9209 32.0785 32.9209 32.0783 32.9209 32.0779V2.88631C32.9205 1.88676 32.1328 1.07646 31.1614 1.07666Z" fill="#237CC8"/>
</svg>
