<svg width="33" height="34" viewBox="0 0 33 34" fill="none" xmlns="http://www.w3.org/2000/svg">
<path d="M24.2344 6.04297H8.76562C7.16638 6.04297 5.86523 7.38354 5.86523 9.03125V24.9688C5.86523 26.6165 7.16638 27.957 8.76562 27.957H24.2344C25.8336 27.957 27.1348 26.6165 27.1348 24.9688V9.03125C27.1348 7.38354 25.8336 6.04297 24.2344 6.04297ZM16.5 23.9727C12.7688 23.9727 9.73242 20.8443 9.73242 17C9.73242 13.1557 12.7688 10.0273 16.5 10.0273C20.2312 10.0273 23.2676 13.1557 23.2676 17C23.2676 20.8443 20.2312 23.9727 16.5 23.9727ZM23.2676 12.0195C22.2016 12.0195 21.334 11.1256 21.334 10.0273C21.334 8.92905 22.2016 8.03516 23.2676 8.03516C24.3336 8.03516 25.2012 8.92905 25.2012 10.0273C25.2012 11.1256 24.3336 12.0195 23.2676 12.0195Z" fill="#237CC8"/>
<path d="M16.5 12.0195C13.8348 12.0195 11.666 14.254 11.666 17C11.666 19.746 13.8348 21.9805 16.5 21.9805C19.1652 21.9805 21.334 19.746 21.334 17C21.334 14.254 19.1652 12.0195 16.5 12.0195Z" fill="#237CC8"/>
<path d="M28.1016 0H4.89844C2.2332 0 0 2.30087 0 5.04688V28.9531C0 31.6991 2.2332 34 4.89844 34H28.1016C30.7668 34 33 31.6991 33 28.9531V5.04688C33 2.30087 30.7668 0 28.1016 0ZM29.0684 24.9688C29.0684 27.7148 26.8996 29.9492 24.2344 29.9492H8.76562C6.10039 29.9492 3.93164 27.7148 3.93164 24.9688V9.03125C3.93164 6.28525 6.10039 4.05078 8.76562 4.05078H24.2344C26.8996 4.05078 29.0684 6.28525 29.0684 9.03125V24.9688Z" fill="#237CC8"/>
</svg>
