<svg width="711" height="201" viewBox="0 0 711 201" fill="none" xmlns="http://www.w3.org/2000/svg">
    <path d="M125 92H143V172H125V92Z" fill="#103C5A"/>
    <path d="M179 122V141H129L129 122L179 122Z" fill="#103C5A"/>
    <path d="M165 92H183V172H165V92Z" fill="#103C5A"/>
    <path d="M205 145C201.4 145 200.167 147 200 148L192 146C192.167 143 195 137 205 137C215 137 217.833 143 218 146L210 148C209.833 147 208.6 145 205 145Z" fill="#103C5A"/>
    <path d="M205 164C208.6 164 209.833 162 210 161L218 163C217.833 166 215 172 205 172C195 172 192.167 166 192 163L200 161C200.167 162 201.4 164 205 164Z" fill="#103C5A"/>
    <path d="M192 146H200V163L192 163L192 146Z" fill="#103C5A"/>
    <path d="M210 146H218V163H210V146Z" fill="#103C5A"/>
    <path d="M266 145C262.4 145 261.167 147 261 148L253 146C253.167 143 256 137 266 137C276 137 278.833 143 279 146L271 148C270.833 147 269.6 145 266 145Z" fill="#103C5A"/>
    <path d="M266 164C269.6 164 270.833 162 271 161L279 163C278.833 166 276 172 266 172C256 172 253.167 166 253 163L261 161C261.167 162 262.4 164 266 164Z" fill="#103C5A"/>
    <path d="M253 146H261V163L253 163L253 146Z" fill="#103C5A"/>
    <path d="M271 146H279V163H271V146Z" fill="#103C5A"/>
    <path d="M381 145C377.4 145 376.167 147 376 148L368 146C368.167 143 371 137 381 137C391 137 393.833 143 394 146L386 148C385.833 147 384.6 145 381 145Z" fill="#103C5A"/>
    <path d="M381 164C384.6 164 385.833 162 386 161L394 163C393.833 166 391 172 381 172C371 172 368.167 166 368 163L376 161C376.167 162 377.4 164 381 164Z" fill="#103C5A"/>
    <path d="M368 146H376V163L368 163L368 146Z" fill="#103C5A"/>
    <path d="M386 146H394V163H386V146Z" fill="#103C5A"/>
    <path d="M541 145C537.4 145 536.167 147 536 148L528 146C528.167 143 531 137 541 137C551 137 553.833 143 554 146L546 148C545.833 147 544.6 145 541 145Z" fill="#103C5A"/>
    <path d="M541 164C544.6 164 545.833 162 546 161L554 163C553.833 166 551 172 541 172C531 172 528.167 166 528 163L536 161C536.167 162 537.4 164 541 164Z" fill="#103C5A"/>
    <path d="M528 146H536V163L528 163L528 146Z" fill="#103C5A"/>
    <path d="M546 146H554V163H546V146Z" fill="#103C5A"/>
    <path d="M241 147C241 145.4 239.667 144.333 239 144C238 142 236.8 137 240 137C244 137 248 142 248 147C248 150.2 245.333 153 244 154C245.667 154.5 249 156.6 249 161C249 169.8 243 172 240 172L239 165C239.667 164.5 241 163 241 161C241 159 239.667 158.167 239 158V151C239.667 150.333 241 148.6 241 147Z" fill="#103C5A"/>
    <path d="M224 137H232L232 172H224L224 137Z" fill="#103C5A"/>
    <path d="M240 137V144L224 144L224 137H240Z" fill="#103C5A"/>
    <path d="M240 151V158H224L224 151L240 151Z" fill="#103C5A"/>
    <path d="M240 165L240 172H224V165H240Z" fill="#103C5A"/>
    <path d="M417 147C417 145.4 415.667 144.333 415 144C414 142 412.8 137 416 137C420 137 424 142 424 147C424 150.2 421.333 153 420 154C421.667 154.5 425 156.6 425 161C425 169.8 419 172 416 172L415 165C415.667 164.5 417 163 417 161C417 159 415.667 158.167 415 158V151C415.667 150.333 417 148.6 417 147Z" fill="#103C5A"/>
    <path d="M400 137H408L408 172H400L400 137Z" fill="#103C5A"/>
    <path d="M416 137V144L400 144L400 137H416Z" fill="#103C5A"/>
    <path d="M416 151V158H400L400 151L416 151Z" fill="#103C5A"/>
    <path d="M416 165L416 172H400V165H416Z" fill="#103C5A"/>
    <path d="M658 147C658 145.4 656.667 144.333 656 144C655 142 653.8 137 657 137C661 137 665 142 665 147C665 150.2 662.333 153 661 154C662.667 154.5 666 156.6 666 161C666 169.8 660 172 657 172L656 165C656.667 164.5 658 163 658 161C658 159 656.667 158.167 656 158V151C656.667 150.333 658 148.6 658 147Z" fill="#103C5A"/>
    <path d="M641 137H649L649 172H641L641 137Z" fill="#103C5A"/>
    <path d="M657 137V144L641 144L641 137H657Z" fill="#103C5A"/>
    <path d="M657 151V158H641L641 151L657 151Z" fill="#103C5A"/>
    <path d="M657 165L657 172H641V165H657Z" fill="#103C5A"/>
    <path d="M308 161C308 154.2 302.667 150.5 300 150L299 158C299.5 158 301 158.6 301 161C301 163.4 299.667 164.333 299 165L300 172C302.667 170.833 308 167.8 308 161Z" fill="#103C5A"/>
    <path d="M284 137H292L292 172H284L284 137Z" fill="#103C5A"/>
    <path d="M300 150V158H284L284 150H300Z" fill="#103C5A"/>
    <path d="M300 165V172H284V165H300Z" fill="#103C5A"/>
    <path d="M284 137H306V144H284L284 137Z" fill="#103C5A"/>
    <path d="M318 137H309L319.5 160L314 172H323L337.5 137H329L324 150L318 137Z" fill="#103C5A"/>
    <path d="M345 137L337 164H345L350 148L354 164H362L354 137H345Z" fill="#103C5A"/>
    <path d="M334 164H365V172H334V164Z" fill="#103C5A"/>
    <path d="M334 170H342V178H334V170Z" fill="#103C5A"/>
    <path d="M357 170H365V178H357V170Z" fill="#103C5A"/>
    <path d="M437 157L447 137V154L437 172V157Z" fill="#103C5A"/>
    <path d="M429 137H437V172H429V137Z" fill="#103C5A"/>
    <path d="M447 137H455V172H447V137Z" fill="#103C5A"/>
    <path d="M678 157L688 137V154L678 172V157Z" fill="#103C5A"/>
    <path d="M670 137H678V172H670V137Z" fill="#103C5A"/>
    <path d="M688 137H696V172H688V137Z" fill="#103C5A"/>
    <path d="M464 92H483V172H464V92Z" fill="#103C5A"/>
    <path d="M503 92H522V172H503V92Z" fill="#103C5A"/>
    <path d="M479 92H509V111H479V92Z" fill="#103C5A"/>
    <path d="M564 172H555L566 137H575L586 172H576.5L571 148L564 172Z" fill="#103C5A"/>
    <path d="M583 137H609V145H583V137Z" fill="#103C5A"/>
    <path d="M600 143L600 172H592L592 143L600 143Z" fill="#103C5A"/>
    <path d="M615 172H606L617 137H626L637 172H627.5L622 148L615 172Z" fill="#103C5A"/>
    <path d="M616 158H628V164H616V158Z" fill="#103C5A"/>
    <path d="M88 83H96V188H711V193H84V95H55L154 0.5L252.5 95H224V118H212V83H220L154 16L88 83Z" fill="url(#paint0_linear)"/>
    <path d="M116.5 33.5L99 16L33 83H41V196H711V201H29V95H0.5L99 0L124.5 25.5L116.5 33.5Z" fill="#103C5A"/>
    <defs>
        <linearGradient id="paint0_linear" x1="383" y1="0.5" x2="383" y2="193" gradientUnits="userSpaceOnUse">
            <stop stop-color="#458D08"/>
            <stop offset="1" stop-color="#62D203"/>
        </linearGradient>
    </defs>
</svg>
